<?xml version="1.0" encoding="UTF-8"?>
<svg width="20px" height="21px" viewBox="0 0 20 21" version="1.1" xmlns="http://www.w3.org/2000/svg" xmlns:xlink="http://www.w3.org/1999/xlink">
    <!-- Generator: Sketch 48.1 (47250) - http://www.bohemiancoding.com/sketch -->
    <title>Arrow-right-circle - simple-line-icons</title>
    <desc>Created with Sketch.</desc>
    <defs></defs>
    <g id="03_01_Profile-Settings" stroke="none" stroke-width="1" fill="none" fill-rule="evenodd" transform="translate(-357.000000, -139.000000)">
        <g id="Group-12" transform="translate(135.000000, 120.000000)" fill="#262E6C">
            <g id="Group-6">
                <path d="M232,19.25 C233.380215,19.25 234.67903,19.5104141 235.896484,20.03125 C237.113938,20.5520859 238.175126,21.2649694 239.080078,22.1699219 C239.985031,23.0748743 240.697914,24.1360616 241.21875,25.3535156 C241.739586,26.5709696 242,27.8697848 242,29.25 C242,30.6302152 241.739586,31.9290304 241.21875,33.1464844 C240.697914,34.3639384 239.985031,35.4251257 239.080078,36.3300781 C238.175126,37.2350306 237.113938,37.9479141 235.896484,38.46875 C234.67903,38.9895859 233.380215,39.25 232,39.25 C230.619785,39.25 229.32097,38.9895859 228.103516,38.46875 C226.886062,37.9479141 225.824874,37.2350306 224.919922,36.3300781 C224.014969,35.4251257 223.302086,34.3639384 222.78125,33.1464844 C222.260414,31.9290304 222,30.6302152 222,29.25 C222,27.8697848 222.260414,26.5709696 222.78125,25.3535156 C223.302086,24.1360616 224.014969,23.0748743 224.919922,22.1699219 C225.824874,21.2649694 226.886062,20.5520859 228.103516,20.03125 C229.32097,19.5104141 230.619785,19.25 232,19.25 Z M232,38.0195312 C233.210944,38.0195312 234.347,37.7884138 235.408203,37.3261719 C236.469406,36.86393 237.393876,36.2356811 238.181641,35.4414062 C238.969405,34.6471314 239.594399,33.7194063 240.056641,32.6582031 C240.518883,31.5969999 240.75,30.4609436 240.75,29.25 C240.75,28.0390564 240.518883,26.9030001 240.056641,25.8417969 C239.594399,24.7805937 238.969405,23.8561237 238.181641,23.0683594 C237.393876,22.280595 236.469406,21.6556013 235.408203,21.1933594 C234.347,20.7311175 233.210944,20.5 232,20.5 C230.789056,20.5 229.653,20.7311175 228.591797,21.1933594 C227.530594,21.6556013 226.606124,22.280595 225.818359,23.0683594 C225.030595,23.8561237 224.405601,24.7805937 223.943359,25.8417969 C223.481117,26.9030001 223.25,28.0390564 223.25,29.25 C223.25,30.4609436 223.481117,31.5969999 223.943359,32.6582031 C224.405601,33.7194063 225.030595,34.6471314 225.818359,35.4414062 C226.606124,36.2356811 227.530594,36.86393 228.591797,37.3261719 C229.653,37.7884138 230.789056,38.0195312 232,38.0195312 Z M232.390625,25.4804688 C232.520834,25.3502598 232.670572,25.2851562 232.839844,25.2851562 C233.009115,25.2851562 233.158854,25.3502598 233.289062,25.4804688 L236.980469,29.2695312 L233.289062,33.0585938 C233.223958,33.1106773 233.152344,33.1529946 233.074219,33.1855469 C232.996093,33.2180991 232.917969,33.234375 232.839844,33.234375 C232.761718,33.234375 232.683594,33.2180991 232.605469,33.1855469 C232.527343,33.1529946 232.455729,33.1106773 232.390625,33.0585938 C232.273437,32.9283848 232.214844,32.7786467 232.214844,32.609375 C232.214844,32.4401033 232.273437,32.2903652 232.390625,32.1601562 L234.695312,29.875 L227.625,29.875 C227.442707,29.875 227.292969,29.8131517 227.175781,29.6894531 C227.058593,29.5657546 227,29.4192717 227,29.25 C227,29.0677074 227.058593,28.9179693 227.175781,28.8007812 C227.292969,28.6835932 227.442707,28.625 227.625,28.625 L234.65625,28.625 L232.390625,26.359375 C232.273437,26.2421869 232.214844,26.095704 232.214844,25.9199219 C232.214844,25.7441397 232.273437,25.5976568 232.390625,25.4804688 Z" id="Arrow-right-circle---simple-line-icons"></path>
            </g>
        </g>
    </g>
</svg>