<?xml version="1.0" encoding="UTF-8"?>
<svg width="286px" height="186px" viewBox="0 0 286 186" version="1.1" xmlns="http://www.w3.org/2000/svg" xmlns:xlink="http://www.w3.org/1999/xlink">
    <!-- Generator: Sketch 48.1 (47250) - http://www.bohemiancoding.com/sketch -->
    <title>Group 6</title>
    <desc>Created with Sketch.</desc>
    <defs>
        <polygon id="path-1" points="292 0 292 140 12.546875 140 12.546875 0 292 1.66453896e-14"></polygon>
        <polygon id="path-3" points="0.798249576 0.422830508 14.0075165 0.422830508 14.0075165 13.6329347 0.798249576 13.6329347 0.798249576 0.422830508"></polygon>
        <polygon id="path-5" points="0.233573664 0.422830508 13.3646793 0.422830508 13.3646793 13.6329347 0.233573664 13.6329347 0.233573664 0.422830508"></polygon>
        <polygon id="path-7" points="0 149.90678 133 149.90678 133 0 0 0"></polygon>
    </defs>
    <g id="01_Exchange_option1" stroke="none" stroke-width="1" fill="none" fill-rule="evenodd" transform="translate(-795.000000, -426.000000)">
        <g id="Group-6" transform="translate(777.000000, 416.000000)">
            <g id="Group-10" transform="translate(160.000000, 106.000000) rotate(-15.000000) translate(-160.000000, -106.000000) translate(14.000000, 36.000000)">
                <path d="M11.4955392,56.7902863 L11.6432906,56.755147 C13.3529845,56.3850137 15.1602998,56.389699 16.9385926,56.3967268 C31.977567,56.4552922 47.0165414,56.4482644 62.0528774,56.4482644 C62.0528774,56.4482644 82.191911,56.267883 82.191911,43.71849 C82.191911,36.3673616 76.9203547,29.0911969 66.8627107,27.6528308 C63.3747241,27.1538536 59.6176189,26.8376005 56.8763041,25.1298336 C54.9476216,23.9327569 53.7682494,22.1781376 52.9239561,20.4000922 C51.3989513,17.200079 50.7921155,13.7072388 51.612663,10.3643261 C53.290696,3.53560097 59.6783025,0.298105919 68.435207,0.159891586 C96.7375014,-0.280520187 125.095203,0.328559925 153.405412,0.328559925 L231.286192,0.328559925 L238.787211,0.328559925 C238.787211,0.328559925 261.767819,-0.5639767 261.767819,13.2387157 C261.767819,27.0460933 247.794765,28.3837269 244.238179,28.3837269 C240.684232,28.3837269 212.730209,25.2516496 212.730209,42.1044277 C212.730209,58.9595485 232.394327,56.4482644 234.053891,56.4482644 C235.708178,56.4482644 261.767819,56.5817935 261.767819,56.5817935 C261.767819,56.5817935 279.453125,56.7598323 279.453125,69.962815 C279.453125,83.1634551 263.427383,84.4190972 258.21651,84.4190972 C253.002999,84.4190972 237.367742,84.9555562 237.367742,99.2993928 C237.367742,113.643229 258.453968,112.746008 261.298181,112.746008 C264.139755,112.746008 279.453125,114.179688 279.453125,126.729081 C279.453125,139.280817 263.66484,140 261.533,140 L64.1873564,140 C64.1873564,140 45.2329718,138.924739 45.2329718,125.836545 C45.2329718,112.746008 58.9738452,112.387587 59.9210368,112.387587 C60.8708667,112.387587 81.4795385,111.492708 81.4795385,98.2241322 C81.4795385,84.9555562 66.3165585,83.8802956 63.2375264,83.8802956 C47.7051681,83.8802956 32.1596177,84.0817605 16.6272595,83.8123597 C11.7013357,83.7256829 7.89146223,82.9947868 4.62510253,79.9657845 C0.7809296,76.395638 -0.844335001,71.5042562 0.424743364,66.9970634 C1.64369181,62.6655667 5.6883844,58.109179 11.4955392,56.7902863" id="Fill-1" fill="#EEF9FF"></path>
                <mask id="mask-2" fill="white">
                    <use xlink:href="#path-1"></use>
                </mask>
                <g id="Clip-2"></g>
                <path d="M108.576698,118.499363 C108.576698,117.975166 108.836457,117.681159 109.497428,117.681159 C110.163543,117.681159 110.423302,117.975166 110.423302,118.499363 L110.423302,120.935741 L113.136626,120.935741 C113.617566,120.935741 114.0625,121.165932 114.0625,121.756224 C114.0625,122.344236 113.617566,122.574427 113.136626,122.574427 L110.423302,122.574427 L110.423302,124.978898 C110.423302,125.503095 110.163543,125.797101 109.497428,125.797101 C108.836457,125.797101 108.576698,125.503095 108.576698,124.978898 L108.576698,122.574427 L105.860802,122.574427 C105.382434,122.574427 104.9375,122.344236 104.9375,121.756224 C104.9375,121.165932 105.382434,120.935741 105.860802,120.935741 L108.576698,120.935741 L108.576698,118.499363 Z" id="Fill-24" fill="#CCE9F9" mask="url(#mask-2)"></path>
                <path d="M183.856402,116.468098 C183.856402,115.94618 184.116234,115.652174 184.777391,115.652174 C185.443694,115.652174 185.703526,115.94618 185.703526,116.468098 L185.703526,118.906756 L188.417615,118.906756 C188.898691,118.906756 189.34375,119.136947 189.34375,119.727238 C189.34375,120.312972 188.898691,120.543163 188.417615,120.543163 L185.703526,120.543163 L185.703526,122.949912 C185.703526,123.47183 185.443694,123.768116 184.777391,123.768116 C184.116234,123.768116 183.856402,123.47183 183.856402,122.949912 L183.856402,120.543163 L181.13974,120.543163 C180.661237,120.543163 180.21875,120.312972 180.21875,119.727238 C180.21875,119.136947 180.661237,118.906756 181.13974,118.906756 L183.856402,118.906756 L183.856402,116.468098 Z" id="Fill-25" fill-opacity="0.512652853" fill="#FF6D2C" mask="url(#mask-2)"></path>
                <path d="M98.6628178,80.1449275 C97.089542,80.1449275 95.8125,79.0095986 95.8125,77.6086957 C95.8125,76.2077927 97.089542,75.0724638 98.6628178,75.0724638 C100.238583,75.0724638 101.515625,76.2077927 101.515625,77.6086957 C101.515625,79.0095986 100.238583,80.1449275 98.6628178,80.1449275 Z" id="Fill-26" fill-opacity="0.512652853" fill="#FF6D2C" mask="url(#mask-2)"></path>
                <path d="M189.34375,30.9407317 C189.34375,31.7813855 188.576527,32.4637681 187.634271,32.4637681 C186.689098,32.4637681 185.921875,31.7813855 185.921875,30.9407317 C185.921875,30.1026724 186.689098,29.4202899 187.634271,29.4202899 C188.576527,29.4202899 189.34375,30.1026724 189.34375,30.9407317" id="Fill-27" fill-opacity="0.512652853" fill="#FF6D2C" mask="url(#mask-2)"></path>
                <path d="M136.867076,25.8737356 C136.867076,25.5466923 137.028041,25.3623188 137.444074,25.3623188 C137.857631,25.3623188 138.021073,25.5466923 138.021073,25.8737356 L138.021073,27.3970111 L139.7174,27.3970111 C140.017043,27.3970111 140.296875,27.541876 140.296875,27.9106228 C140.296875,28.2771747 140.017043,28.4198446 139.7174,28.4198446 L138.021073,28.4198446 L138.021073,29.9255608 C138.021073,30.2504092 137.857631,30.4347826 137.444074,30.4347826 C137.028041,30.4347826 136.867076,30.2504092 136.867076,29.9255608 L136.867076,28.4198446 L135.170749,28.4198446 C134.871106,28.4198446 134.59375,28.2771747 134.59375,27.9106228 C134.59375,27.541876 134.871106,27.3970111 135.170749,27.3970111 L136.867076,27.3970111 L136.867076,25.8737356 Z" id="Fill-28" fill="#CCE9F9" mask="url(#mask-2)"></path>
                <path d="M217.853493,93.8450812 C217.853493,93.5181312 218.016592,93.3333333 218.431024,93.3333333 C218.845457,93.3333333 219.008556,93.5181312 219.008556,93.8450812 L219.008556,95.370848 L220.703718,95.370848 C221.005853,95.370848 221.28125,95.510631 221.28125,95.8802266 C221.28125,96.2498223 221.005853,96.3919745 220.703718,96.3919745 L219.008556,96.3919745 L219.008556,97.8940492 C219.008556,98.2233685 218.845457,98.4057971 218.431024,98.4057971 C218.016592,98.4057971 217.853493,98.2233685 217.853493,97.8940492 L217.853493,96.3919745 L216.155657,96.3919745 C215.85887,96.3919745 215.578125,96.2498223 215.578125,95.8802266 C215.578125,95.510631 215.85887,95.370848 216.155657,95.370848 L217.853493,95.370848 L217.853493,93.8450812 Z" id="Fill-29" fill="#CCE9F9" mask="url(#mask-2)"></path>
            </g>
            <g id="Page-1" transform="translate(94.000000, 10.000000)">
                <g id="Group-3" transform="translate(12.398305, 0.000000)">
                    <mask id="mask-4" fill="white">
                        <use xlink:href="#path-3"></use>
                    </mask>
                    <g id="Clip-2"></g>
                    <path d="M14.0075165,7.02777797 C14.0075165,10.6752144 11.0508428,13.6329347 7.40235975,13.6329347 C3.75492331,13.6329347 0.798249576,10.6752144 0.798249576,7.02777797 C0.798249576,3.38034153 3.75492331,0.422621186 7.40235975,0.422621186 C11.0508428,0.422621186 14.0075165,3.38034153 14.0075165,7.02777797" id="Fill-1" fill="#D95A5A" mask="url(#mask-4)"></path>
                </g>
                <path d="M24.3201805,10.1440678 C23.8531467,10.8672202 23.2516483,11.4940888 22.5423729,11.9796047 L35.3852878,24.7966102 L37.1949153,22.9907778 L24.3201805,10.1440678 Z" id="Fill-4" fill="#B8D4EA"></path>
                <g id="Group-8" transform="translate(108.203390, 0.000000)">
                    <mask id="mask-6" fill="white">
                        <use xlink:href="#path-5"></use>
                    </mask>
                    <g id="Clip-7"></g>
                    <path d="M0.233573664,7.02777797 C0.233573664,10.6752144 3.17275228,13.6329347 6.79964668,13.6329347 C10.4255007,13.6329347 13.3646793,10.6752144 13.3646793,7.02777797 C13.3646793,3.38034153 10.4255007,0.422621186 6.79964668,0.422621186 C3.17275228,0.422621186 0.233573664,3.38034153 0.233573664,7.02777797" id="Fill-6" fill="#D95A5A" mask="url(#mask-6)"></path>
                </g>
                <path d="M109.806938,10.1440678 C110.273972,10.8672202 110.87547,11.4940888 111.584746,11.9796047 L98.7418309,24.7966102 L96.9322034,22.9907778 L109.806938,10.1440678 Z" id="Fill-9" fill="#B8D4EA"></path>
                <mask id="mask-8" fill="white">
                    <use xlink:href="#path-7"></use>
                </mask>
                <g id="Clip-12"></g>
                <polygon id="Fill-11" fill="#57ACD4" mask="url(#mask-8)" points="66.5 122.855932 105.949153 122.855932 105.949153 64.2457627 66.5 64.2457627"></polygon>
                <polygon id="Fill-13" fill="#61C4F2" mask="url(#mask-8)" points="27.0508475 122.855932 66.5 122.855932 66.5 64.2457627 27.0508475 64.2457627"></polygon>
                <path d="M27.0508475,47.2534052 L27.0508475,54.1016949 L66.5,54.1016949 L66.5,7.88983051 C44.7131416,7.88983051 27.0508475,25.512803 27.0508475,47.2534052" id="Fill-14" fill="#61C4F2" mask="url(#mask-8)"></path>
                <path d="M105.949153,47.2534052 C105.949153,25.512803 88.2868584,7.88983051 66.5,7.88983051 L66.5,54.1016949 L105.949153,54.1016949 L105.949153,47.2534052 Z" id="Fill-15" fill="#57ACD4" mask="url(#mask-8)"></path>
                <path d="M14.6525424,76.6440678 C14.6525424,83.4916137 20.2033016,89.0423729 27.0508475,89.0423729 L27.0508475,64.2457627 C20.2033016,64.2457627 14.6525424,69.7965219 14.6525424,76.6440678" id="Fill-16" fill="#263357" mask="url(#mask-8)"></path>
                <polygon id="Fill-17" fill="#FFFFFF" mask="url(#mask-8)" points="33.8135593 85.6610169 45.0847458 85.6610169 45.0847458 74.3898305 33.8135593 74.3898305"></polygon>
                <polygon id="Fill-18" fill="#FFFFFF" mask="url(#mask-8)" points="51.8474576 85.6610169 63.1186441 85.6610169 63.1186441 74.3898305 51.8474576 74.3898305"></polygon>
                <polygon id="Fill-19" fill="#FFFFFF" mask="url(#mask-8)" points="69.8813559 85.6610169 81.1525424 85.6610169 81.1525424 74.3898305 69.8813559 74.3898305"></polygon>
                <polygon id="Fill-20" fill="#FFFFFF" mask="url(#mask-8)" points="89.0423729 85.6610169 100.313559 85.6610169 100.313559 74.3898305 89.0423729 74.3898305"></polygon>
                <path d="M60.8644068,35.5042373 C60.8644068,40.1730721 57.0808658,43.9576271 52.4110169,43.9576271 C47.7431962,43.9576271 43.9576271,40.1730721 43.9576271,35.5042373 C43.9576271,30.8354025 47.7431962,27.0508475 52.4110169,27.0508475 C57.0808658,27.0508475 60.8644068,30.8354025 60.8644068,35.5042373" id="Fill-21" fill="#FFFFFF" mask="url(#mask-8)"></path>
                <path d="M90.1694915,35.5042373 C90.1694915,40.1730721 86.3851635,43.9576271 81.7155947,43.9576271 C77.0480539,43.9576271 73.2627119,40.1730721 73.2627119,35.5042373 C73.2627119,30.8354025 77.0480539,27.0508475 81.7155947,27.0508475 C86.3851635,27.0508475 90.1694915,30.8354025 90.1694915,35.5042373" id="Fill-22" fill="#FFFFFF" mask="url(#mask-8)"></path>
                <polygon id="Fill-23" fill="#FFFFFF" mask="url(#mask-8)" points="40.5762712 108.20339 92.4237288 108.20339 92.4237288 95.8050847 40.5762712 95.8050847"></polygon>
                <path d="M19.1610169,104.822034 C19.1610169,109.179783 15.6289357,112.711864 11.2711864,112.711864 C6.91343723,112.711864 3.38135593,109.179783 3.38135593,104.822034 C3.38135593,100.464285 6.91343723,96.9322034 11.2711864,96.9322034 C15.6289357,96.9322034 19.1610169,100.464285 19.1610169,104.822034" id="Fill-24" fill="#243257" mask="url(#mask-8)"></path>
                <path d="M11.2870567,97.6414229 C11.5230229,97.6414229 11.7434651,97.6895152 11.9742567,97.7099801 C10.9331073,96.4247897 9.83503615,94.0989634 10.5574241,90.187114 C11.3181049,86.0716397 14.5305579,84.2871078 16.9067797,83.5084216 C15.7466122,81.5826825 15.0366435,79.3591803 15.0366435,76.9545645 C15.0366435,75.6622114 15.2870989,74.4394387 15.6451881,73.2627119 C9.992347,74.6369242 2.16302757,78.8485832 0.405699822,88.3544898 C-0.863136347,95.2204353 1.02148899,100.305942 3.60366374,103.694915 C4.41195171,100.230222 7.5364349,97.6414229 11.2870567,97.6414229" id="Fill-25" fill="#B8D4EA" mask="url(#mask-8)"></path>
                <path d="M118.347458,76.6440678 C118.347458,83.4916137 112.796698,89.0423729 105.949153,89.0423729 L105.949153,64.2457627 C112.796698,64.2457627 118.347458,69.7965219 118.347458,76.6440678" id="Fill-26" fill="#263357" mask="url(#mask-8)"></path>
                <path d="M114.966102,104.822034 C114.966102,109.179783 118.498183,112.711864 122.855932,112.711864 C127.213681,112.711864 130.745763,109.179783 130.745763,104.822034 C130.745763,100.464285 127.213681,96.9322034 122.855932,96.9322034 C118.498183,96.9322034 114.966102,100.464285 114.966102,104.822034" id="Fill-27" fill="#243257" mask="url(#mask-8)"></path>
                <path d="M122.840101,97.6414229 C122.604133,97.6414229 122.383689,97.6895152 122.152896,97.7099801 C123.194053,96.4247897 124.291097,94.0989634 123.569739,90.187114 C122.808018,86.0716397 119.596577,84.2871078 117.220339,83.5084216 C118.380515,81.5826825 119.090488,79.3591803 119.090488,76.9545645 C119.090488,75.6622114 118.840031,74.4394387 118.481939,73.2627119 C124.13482,74.6369242 131.964193,78.8485832 133.721533,88.3544898 C134.990378,95.2204353 133.104705,100.305942 130.523547,103.694915 C129.714219,100.230222 126.589714,97.6414229 122.840101,97.6414229" id="Fill-28" fill="#B8D4EA" mask="url(#mask-8)"></path>
                <polygon id="Fill-29" fill="#263357" mask="url(#mask-8)" points="36.0677966 135.254237 58.6101695 135.254237 58.6101695 122.855932 36.0677966 122.855932"></polygon>
                <polygon id="Fill-30" fill="#61C4F2" mask="url(#mask-8)" points="32.6864407 149.90678 61.9915254 149.90678 61.9915254 136.381356 32.6864407 136.381356"></polygon>
                <polygon id="Fill-31" fill="#263357" mask="url(#mask-8)" points="75.5169492 135.254237 98.059322 135.254237 98.059322 122.855932 75.5169492 122.855932"></polygon>
                <polygon id="Fill-32" fill="#57ACD4" mask="url(#mask-8)" points="71.0084746 149.90678 100.313559 149.90678 100.313559 136.381356 71.0084746 136.381356"></polygon>
                <polygon id="Fill-33" fill="#263357" mask="url(#mask-8)" points="36.0677966 64.2457627 98.059322 64.2457627 98.059322 54.1016949 36.0677966 54.1016949"></polygon>
                <polygon id="Fill-34" fill="#B8D4EA" mask="url(#mask-8)" points="40.5762712 102.567797 92.4237288 102.567797 92.4237288 95.8050847 40.5762712 95.8050847"></polygon>
            </g>
        </g>
    </g>
</svg>