<?xml version="1.0" encoding="UTF-8"?>
<svg width="286px" height="196px" viewBox="0 0 286 196" version="1.1" xmlns="http://www.w3.org/2000/svg" xmlns:xlink="http://www.w3.org/1999/xlink">
    <!-- Generator: Sketch 48.1 (47250) - http://www.bohemiancoding.com/sketch -->
    <title>Group 4</title>
    <desc>Created with Sketch.</desc>
    <defs>
        <polygon id="path-1" points="292 0 292 140 12.546875 140 12.546875 0 292 1.66453896e-14"></polygon>
        <polygon id="path-3" points="0 160.113967 103.283429 160.113967 103.283429 0 0 0"></polygon>
    </defs>
    <g id="01_Exchange_option1" stroke="none" stroke-width="1" fill="none" fill-rule="evenodd" transform="translate(-345.000000, -418.000000)">
        <g id="Group-4" transform="translate(327.000000, 418.000000)">
            <g id="Group-10" transform="translate(160.000000, 106.000000) rotate(-15.000000) translate(-160.000000, -106.000000) translate(14.000000, 36.000000)">
                <path d="M11.4955392,56.7902863 L11.6432906,56.755147 C13.3529845,56.3850137 15.1602998,56.389699 16.9385926,56.3967268 C31.977567,56.4552922 47.0165414,56.4482644 62.0528774,56.4482644 C62.0528774,56.4482644 82.191911,56.267883 82.191911,43.71849 C82.191911,36.3673616 76.9203547,29.0911969 66.8627107,27.6528308 C63.3747241,27.1538536 59.6176189,26.8376005 56.8763041,25.1298336 C54.9476216,23.9327569 53.7682494,22.1781376 52.9239561,20.4000922 C51.3989513,17.200079 50.7921155,13.7072388 51.612663,10.3643261 C53.290696,3.53560097 59.6783025,0.298105919 68.435207,0.159891586 C96.7375014,-0.280520187 125.095203,0.328559925 153.405412,0.328559925 L231.286192,0.328559925 L238.787211,0.328559925 C238.787211,0.328559925 261.767819,-0.5639767 261.767819,13.2387157 C261.767819,27.0460933 247.794765,28.3837269 244.238179,28.3837269 C240.684232,28.3837269 212.730209,25.2516496 212.730209,42.1044277 C212.730209,58.9595485 232.394327,56.4482644 234.053891,56.4482644 C235.708178,56.4482644 261.767819,56.5817935 261.767819,56.5817935 C261.767819,56.5817935 279.453125,56.7598323 279.453125,69.962815 C279.453125,83.1634551 263.427383,84.4190972 258.21651,84.4190972 C253.002999,84.4190972 237.367742,84.9555562 237.367742,99.2993928 C237.367742,113.643229 258.453968,112.746008 261.298181,112.746008 C264.139755,112.746008 279.453125,114.179688 279.453125,126.729081 C279.453125,139.280817 263.66484,140 261.533,140 L64.1873564,140 C64.1873564,140 45.2329718,138.924739 45.2329718,125.836545 C45.2329718,112.746008 58.9738452,112.387587 59.9210368,112.387587 C60.8708667,112.387587 81.4795385,111.492708 81.4795385,98.2241322 C81.4795385,84.9555562 66.3165585,83.8802956 63.2375264,83.8802956 C47.7051681,83.8802956 32.1596177,84.0817605 16.6272595,83.8123597 C11.7013357,83.7256829 7.89146223,82.9947868 4.62510253,79.9657845 C0.7809296,76.395638 -0.844335001,71.5042562 0.424743364,66.9970634 C1.64369181,62.6655667 5.6883844,58.109179 11.4955392,56.7902863" id="Fill-1" fill="#EEF9FF"></path>
                <mask id="mask-2" fill="white">
                    <use xlink:href="#path-1"></use>
                </mask>
                <g id="Clip-2"></g>
                <path d="M108.576698,118.499363 C108.576698,117.975166 108.836457,117.681159 109.497428,117.681159 C110.163543,117.681159 110.423302,117.975166 110.423302,118.499363 L110.423302,120.935741 L113.136626,120.935741 C113.617566,120.935741 114.0625,121.165932 114.0625,121.756224 C114.0625,122.344236 113.617566,122.574427 113.136626,122.574427 L110.423302,122.574427 L110.423302,124.978898 C110.423302,125.503095 110.163543,125.797101 109.497428,125.797101 C108.836457,125.797101 108.576698,125.503095 108.576698,124.978898 L108.576698,122.574427 L105.860802,122.574427 C105.382434,122.574427 104.9375,122.344236 104.9375,121.756224 C104.9375,121.165932 105.382434,120.935741 105.860802,120.935741 L108.576698,120.935741 L108.576698,118.499363 Z" id="Fill-24" fill="#CCE9F9" mask="url(#mask-2)"></path>
                <path d="M183.856402,116.468098 C183.856402,115.94618 184.116234,115.652174 184.777391,115.652174 C185.443694,115.652174 185.703526,115.94618 185.703526,116.468098 L185.703526,118.906756 L188.417615,118.906756 C188.898691,118.906756 189.34375,119.136947 189.34375,119.727238 C189.34375,120.312972 188.898691,120.543163 188.417615,120.543163 L185.703526,120.543163 L185.703526,122.949912 C185.703526,123.47183 185.443694,123.768116 184.777391,123.768116 C184.116234,123.768116 183.856402,123.47183 183.856402,122.949912 L183.856402,120.543163 L181.13974,120.543163 C180.661237,120.543163 180.21875,120.312972 180.21875,119.727238 C180.21875,119.136947 180.661237,118.906756 181.13974,118.906756 L183.856402,118.906756 L183.856402,116.468098 Z" id="Fill-25" fill-opacity="0.512652853" fill="#FF6D2C" mask="url(#mask-2)"></path>
                <path d="M98.6628178,80.1449275 C97.089542,80.1449275 95.8125,79.0095986 95.8125,77.6086957 C95.8125,76.2077927 97.089542,75.0724638 98.6628178,75.0724638 C100.238583,75.0724638 101.515625,76.2077927 101.515625,77.6086957 C101.515625,79.0095986 100.238583,80.1449275 98.6628178,80.1449275 Z" id="Fill-26" fill-opacity="0.512652853" fill="#FF6D2C" mask="url(#mask-2)"></path>
                <path d="M189.34375,30.9407317 C189.34375,31.7813855 188.576527,32.4637681 187.634271,32.4637681 C186.689098,32.4637681 185.921875,31.7813855 185.921875,30.9407317 C185.921875,30.1026724 186.689098,29.4202899 187.634271,29.4202899 C188.576527,29.4202899 189.34375,30.1026724 189.34375,30.9407317" id="Fill-27" fill-opacity="0.512652853" fill="#FF6D2C" mask="url(#mask-2)"></path>
                <path d="M136.867076,25.8737356 C136.867076,25.5466923 137.028041,25.3623188 137.444074,25.3623188 C137.857631,25.3623188 138.021073,25.5466923 138.021073,25.8737356 L138.021073,27.3970111 L139.7174,27.3970111 C140.017043,27.3970111 140.296875,27.541876 140.296875,27.9106228 C140.296875,28.2771747 140.017043,28.4198446 139.7174,28.4198446 L138.021073,28.4198446 L138.021073,29.9255608 C138.021073,30.2504092 137.857631,30.4347826 137.444074,30.4347826 C137.028041,30.4347826 136.867076,30.2504092 136.867076,29.9255608 L136.867076,28.4198446 L135.170749,28.4198446 C134.871106,28.4198446 134.59375,28.2771747 134.59375,27.9106228 C134.59375,27.541876 134.871106,27.3970111 135.170749,27.3970111 L136.867076,27.3970111 L136.867076,25.8737356 Z" id="Fill-28" fill="#CCE9F9" mask="url(#mask-2)"></path>
                <path d="M217.853493,93.8450812 C217.853493,93.5181312 218.016592,93.3333333 218.431024,93.3333333 C218.845457,93.3333333 219.008556,93.5181312 219.008556,93.8450812 L219.008556,95.370848 L220.703718,95.370848 C221.005853,95.370848 221.28125,95.510631 221.28125,95.8802266 C221.28125,96.2498223 221.005853,96.3919745 220.703718,96.3919745 L219.008556,96.3919745 L219.008556,97.8940492 C219.008556,98.2233685 218.845457,98.4057971 218.431024,98.4057971 C218.016592,98.4057971 217.853493,98.2233685 217.853493,97.8940492 L217.853493,96.3919745 L216.155657,96.3919745 C215.85887,96.3919745 215.578125,96.2498223 215.578125,95.8802266 C215.578125,95.510631 215.85887,95.370848 216.155657,95.370848 L217.853493,95.370848 L217.853493,93.8450812 Z" id="Fill-29" fill="#CCE9F9" mask="url(#mask-2)"></path>
            </g>
            <g id="Page-1" transform="translate(108.000000, 0.000000)">
                <path d="M15.1945143,79.1370444 C15.1945143,75.8136205 18.0825143,73.1182033 21.6459429,73.1182033 L50.7373714,73.1182033 L50.7373714,139.969455 L21.6459429,139.969455 C18.0825143,139.969455 15.1945143,137.274038 15.1945143,133.950614 L15.1945143,79.1370444 Z" id="Fill-1" fill="#61C4F2"></path>
                <path d="M81.6788571,139.969135 C85.2411429,139.969135 88.1302857,137.274784 88.1302857,133.950294 L88.1302857,79.1367245 C88.1302857,75.8133007 85.2411429,73.1189497 81.6788571,73.1189497 L50.7371429,73.1189497 L50.7371429,139.969135 L81.6788571,139.969135 Z" id="Fill-3" fill="#57ACD4"></path>
                <path d="M12.9556571,59.9865742 L12.9556571,66.8509318 L50.7373714,66.8509318 L50.7373714,23.9193755 C29.7910857,24.3821172 12.9556571,40.3339119 12.9556571,59.9865742" id="Fill-5" fill="#61C4F2"></path>
                <path d="M90.3686857,59.9865742 C90.3686857,40.0428325 73.0395429,23.8756603 51.6624,23.8756603 C51.3492571,23.8756603 51.0475429,23.9119119 50.7366857,23.9193755 L50.7366857,66.8509318 L90.3686857,66.8509318 L90.3686857,59.9865742 Z" id="Fill-7" fill="#57ACD4"></path>
                <mask id="mask-4" fill="white">
                    <use xlink:href="#path-3"></use>
                </mask>
                <g id="Clip-10"></g>
                <polygon id="Fill-9" fill="#868586" mask="url(#mask-4)" points="24.792 73.1185232 78.5325714 73.1185232 78.5325714 66.8512517 24.792 66.8512517"></polygon>
                <path d="M70.7570286,56.1923053 L32.5673143,56.1923053 C27.6850286,56.1923053 23.7250286,52.4989013 23.7250286,47.9429212 C23.7250286,43.3858748 27.6850286,39.6924709 32.5673143,39.6924709 L70.7570286,39.6924709 C75.6404571,39.6924709 79.5993143,43.3858748 79.5993143,47.9429212 C79.5993143,52.4989013 75.6404571,56.1923053 70.7570286,56.1923053" id="Fill-11" fill="#FFFFFF" mask="url(#mask-4)"></path>
                <path d="M15.1945143,79.3848351 C6.57737143,80.7165503 0.000228571346,87.6811331 0.000228571346,96.0989808 L0.000228571346,99.1814377 L15.1945143,99.1814377 L15.1945143,79.3848351 Z" id="Fill-12" fill="#263357" mask="url(#mask-4)"></path>
                <path d="M15.1945143,133.950827 L15.1945143,119.252913 C9.06308571,119.252913 4.09165714,123.889926 4.09165714,129.611291 C4.09165714,135.331589 9.06308571,139.969668 15.1945143,139.969668 L21.6459429,139.969668 C18.0825143,139.969668 15.1945143,137.274251 15.1945143,133.950827" id="Fill-13" fill="#263357" mask="url(#mask-4)"></path>
                <path d="M4.09188571,129.610864 L4.09188571,130.717606 L4.21074286,130.717606 C4.16845714,130.348692 4.09188571,129.989374 4.09188571,129.610864" id="Fill-14" fill="#D95A5A" mask="url(#mask-4)"></path>
                <path d="M15.1945143,119.2527 L15.1945143,99.1820775 L4.09165714,99.1820775 L4.09165714,129.611077 C4.09165714,123.890779 9.06308571,119.2527 15.1945143,119.2527" id="Fill-15" fill="#B8D4EA" mask="url(#mask-4)"></path>
                <path d="M34.6968,145.149283 C38.2899429,145.149283 41.5962286,146.265621 44.2693714,148.12725 L44.2693714,139.969562 L25.1230857,139.969562 L25.1230857,148.12725 C27.7973714,146.265621 31.1025143,145.149283 34.6968,145.149283" id="Fill-16" fill="#263357" mask="url(#mask-4)"></path>
                <path d="M88.0884571,79.3848351 C96.7056,80.7165503 103.283886,87.6811331 103.283886,96.0989808 L103.283886,99.1814377 L88.0884571,99.1814377 L88.0884571,79.3848351 Z" id="Fill-17" fill="#263357" mask="url(#mask-4)"></path>
                <path d="M88.0884571,133.950827 L88.0884571,119.252913 C94.2210286,119.252913 99.1924571,123.889926 99.1924571,129.611291 C99.1924571,135.331589 94.2210286,139.969668 88.0884571,139.969668 L81.6370286,139.969668 C85.2016,139.969668 88.0884571,137.274251 88.0884571,133.950827" id="Fill-18" fill="#263357" mask="url(#mask-4)"></path>
                <path d="M99.1923429,129.610864 L99.1923429,130.717606 L99.0734857,130.717606 C99.1157714,130.348692 99.1923429,129.989374 99.1923429,129.610864" id="Fill-19" fill="#D95A5A" mask="url(#mask-4)"></path>
                <path d="M88.0884571,119.2527 L88.0884571,99.1820775 L99.1924571,99.1820775 L99.1924571,129.611077 C99.1924571,123.890779 94.2210286,119.2527 88.0884571,119.2527" id="Fill-20" fill="#B8D4EA" mask="url(#mask-4)"></path>
                <path d="M68.5874286,145.149283 C64.9931429,145.149283 61.688,146.265621 59.0137143,148.12725 L59.0137143,139.969562 L78.16,139.969562 L78.16,148.12725 C75.4857143,146.265621 72.1805714,145.149283 68.5874286,145.149283" id="Fill-21" fill="#263357" mask="url(#mask-4)"></path>
                <path d="M34.6968,145.149283 L34.6968,160.113754 L50.7368,160.113754 C50.7368,151.849442 43.5550857,145.149283 34.6968,145.149283" id="Fill-22" fill="#61C4F2" mask="url(#mask-4)"></path>
                <path d="M18.6565714,160.11386 L34.6965714,160.11386 L34.6965714,145.14939 C25.8371429,145.14939 18.6565714,151.849549 18.6565714,160.11386" id="Fill-23" fill="#61C4F2" mask="url(#mask-4)"></path>
                <path d="M68.5874286,145.149283 C59.728,145.149283 52.5474286,151.849442 52.5474286,160.113754 L68.5874286,160.113754 L68.5874286,145.149283 Z" id="Fill-24" fill="#57ACD4" mask="url(#mask-4)"></path>
                <path d="M68.5874286,145.149283 L68.5874286,160.113754 L84.6274286,160.113754 C84.6274286,151.849442 77.4457143,145.149283 68.5874286,145.149283" id="Fill-25" fill="#57ACD4" mask="url(#mask-4)"></path>
                <path d="M12.9556571,59.9865742 C12.9556571,54.5605543 14.2768,49.4352099 16.5773714,44.8205874 C16.3076571,44.8003291 16.0482286,44.7459517 15.7739429,44.7459517 C10.5362286,44.7459517 6.29165714,48.7069781 6.29165714,53.5924219 C6.29165714,57.556647 9.10422857,60.8715411 12.9556571,61.9964086 L12.9556571,59.9865742 Z" id="Fill-26" fill="#263357" mask="url(#mask-4)"></path>
                <path d="M90.4445714,59.9865742 C90.4445714,54.5605543 89.1234286,49.4352099 86.824,44.8205874 C87.0925714,44.8003291 87.352,44.7459517 87.6274286,44.7459517 C92.864,44.7459517 97.1097143,48.7069781 97.1097143,53.5924219 C97.1097143,57.556647 94.296,60.8715411 90.4445714,61.9964086 L90.4445714,59.9865742 Z" id="Fill-27" fill="#263357" mask="url(#mask-4)"></path>
                <path d="M26.1242286,94.9044887 L22.9253714,94.9044887 L22.9253714,86.5484821 L26.1242286,86.5484821 C28.5973714,86.5484821 30.6030857,88.4186411 30.6030857,90.7259523 C30.6030857,93.0343298 28.5973714,94.9044887 26.1242286,94.9044887" id="Fill-28" fill="#FFFFFF" mask="url(#mask-4)"></path>
                <path d="M38.4590857,94.9044887 L35.2602286,94.9044887 L35.2602286,86.5484821 L38.4590857,86.5484821 C40.9322286,86.5484821 42.9379429,88.4186411 42.9379429,90.7259523 C42.9379429,93.0343298 40.9322286,94.9044887 38.4590857,94.9044887" id="Fill-29" fill="#FFFFFF" mask="url(#mask-4)"></path>
                <path d="M50.7938286,94.9044887 L47.5949714,94.9044887 L47.5949714,86.5484821 L50.7938286,86.5484821 C53.2669714,86.5484821 55.2726857,88.4186411 55.2726857,90.7259523 C55.2726857,93.0343298 53.2669714,94.9044887 50.7938286,94.9044887" id="Fill-30" fill="#FFFFFF" mask="url(#mask-4)"></path>
                <polygon id="Fill-31" fill="#B8D4EA" mask="url(#mask-4)" points="49.4582857 23.9207616 52.0171429 23.9207616 52.0171429 7.31323841 49.4582857 7.31323841"></polygon>
                <path d="M55.6342857,4.56888146 C55.6342857,7.09263642 53.4422857,9.13765629 50.7371429,9.13765629 C48.0331429,9.13765629 45.84,7.09263642 45.84,4.56888146 C45.84,2.04619272 48.0331429,0.000106622517 50.7371429,0.000106622517 C53.4422857,0.000106622517 55.6342857,2.04619272 55.6342857,4.56888146" id="Fill-32" fill="#F86464" mask="url(#mask-4)"></path>
                <path d="M24.2648,45.1271272 L79.0590857,45.1271272 C77.8248,41.9593722 74.5779429,39.6925775 70.7573714,39.6925775 L32.5676571,39.6925775 C28.7459429,39.6925775 25.4990857,41.9593722 24.2648,45.1271272" id="Fill-33" fill="#B8D4EA" mask="url(#mask-4)"></path>
            </g>
        </g>
    </g>
</svg>