<?xml version="1.0" encoding="UTF-8"?>
<svg width="122px" height="89px" viewBox="0 0 122 89" version="1.1" xmlns="http://www.w3.org/2000/svg" xmlns:xlink="http://www.w3.org/1999/xlink">
    <!-- Generator: Sketch 48.1 (47250) - http://www.bohemiancoding.com/sketch -->
    <title>fair</title>
    <desc>Created with Sketch.</desc>
    <defs>
        <rect id="path-1" x="0.0520298188" y="0" width="70.5778828" height="70.5778828" rx="2.975"></rect>
        <path d="M11.3604694,1.15463195e-14 L97.4056325,1.15463195e-14 C100.258294,1.15463195e-14 102.570833,2.30712891 102.570833,5.14832799 L102.570833,48.5448537 C102.570833,51.388197 100.284684,53.6931818 97.4140366,53.6931818 L5.15679677,53.6931818 C2.30877656,53.6931818 -1.47437618e-13,51.3854658 -1.47437618e-13,48.5330545 L-1.47437618e-13,10.1992137 L11.3604694,1.15463195e-14 Z" id="path-3"></path>
        <path d="M11.3604694,1.15463195e-14 L97.4056325,1.15463195e-14 C100.258294,1.15463195e-14 102.570833,2.30712891 102.570833,5.14832799 L102.570833,48.5448537 C102.570833,51.388197 100.284684,53.6931818 97.4140366,53.6931818 L5.15679677,53.6931818 C2.30877656,53.6931818 -1.47437618e-13,51.3854658 -1.47437618e-13,48.5330545 L-1.47437618e-13,10.1992137 L11.3604694,1.15463195e-14 Z" id="path-5"></path>
        <path d="M11.3604694,1.15463195e-14 L97.4056325,1.15463195e-14 C100.258294,1.15463195e-14 102.570833,2.30712891 102.570833,5.14832799 L102.570833,48.5448537 C102.570833,51.388197 100.284684,53.6931818 97.4140366,53.6931818 L5.15679677,53.6931818 C2.30877656,53.6931818 -1.47437618e-13,51.3854658 -1.47437618e-13,48.5330545 L-1.47437618e-13,10.1992137 L11.3604694,1.15463195e-14 Z" id="path-7"></path>
        <path d="M11.3604694,1.15463195e-14 L97.4056325,1.15463195e-14 C100.258294,1.15463195e-14 102.570833,2.30712891 102.570833,5.14832799 L102.570833,48.5448537 C102.570833,51.388197 100.284684,53.6931818 97.4140366,53.6931818 L5.15679677,53.6931818 C2.30877656,53.6931818 -1.47437618e-13,51.3854658 -1.47437618e-13,48.5330545 L-1.47437618e-13,10.1992137 L11.3604694,1.15463195e-14 Z" id="path-9"></path>
        <path d="M11.3604694,1.15463195e-14 L97.4056325,1.15463195e-14 C100.258294,1.15463195e-14 102.570833,2.30712891 102.570833,5.14832799 L102.570833,48.5448537 C102.570833,51.388197 100.284684,53.6931818 97.4140366,53.6931818 L5.15679677,53.6931818 C2.30877656,53.6931818 -1.47437618e-13,51.3854658 -1.47437618e-13,48.5330545 L-1.47437618e-13,10.1992137 L11.3604694,1.15463195e-14 Z" id="path-11"></path>
        <path d="M11.3604694,1.15463195e-14 L97.4056325,1.15463195e-14 C100.258294,1.15463195e-14 102.570833,2.30712891 102.570833,5.14832799 L102.570833,48.5448537 C102.570833,51.388197 100.284684,53.6931818 97.4140366,53.6931818 L5.15679677,53.6931818 C2.30877656,53.6931818 -1.47437618e-13,51.3854658 -1.47437618e-13,48.5330545 L-1.47437618e-13,10.1992137 L11.3604694,1.15463195e-14 Z" id="path-13"></path>
        <path d="M11.3604694,0 L97.4056325,0 C100.258294,0 102.570833,2.30712891 102.570833,5.14832799 L102.570833,48.5448537 C102.570833,51.388197 100.284684,53.6931818 97.4140366,53.6931818 L5.15679677,53.6931818 C2.30877656,53.6931818 0,51.3854658 0,48.5330545 L0,10.1992137 L11.3604694,0 Z" id="path-15"></path>
        <path d="M11.3604694,0 L97.4056325,0 C100.258294,0 102.570833,2.30712891 102.570833,5.14832799 L102.570833,48.5448537 C102.570833,51.388197 100.284684,53.6931818 97.4140366,53.6931818 L5.15679677,53.6931818 C2.30877656,53.6931818 0,51.3854658 0,48.5330545 L0,10.1992137 L11.3604694,0 Z" id="path-17"></path>
        <path d="M11.3604694,0 L97.4056325,0 C100.258294,0 102.570833,2.30712891 102.570833,5.14832799 L102.570833,48.5448537 C102.570833,51.388197 100.284684,53.6931818 97.4140366,53.6931818 L5.15679677,53.6931818 C2.30877656,53.6931818 0,51.3854658 0,48.5330545 L0,10.1992137 L11.3604694,0 Z" id="path-19"></path>
        <path d="M11.3604694,0 L97.4056325,0 C100.258294,0 102.570833,2.30712891 102.570833,5.14832799 L102.570833,48.5448537 C102.570833,51.388197 100.284684,53.6931818 97.4140366,53.6931818 L5.15679677,53.6931818 C2.30877656,53.6931818 0,51.3854658 0,48.5330545 L0,10.1992137 L11.3604694,0 Z" id="path-21"></path>
        <path d="M11.3604694,0 L97.4056325,0 C100.258294,0 102.570833,2.30712891 102.570833,5.14832799 L102.570833,48.5448537 C102.570833,51.388197 100.284684,53.6931818 97.4140366,53.6931818 L5.15679677,53.6931818 C2.30877656,53.6931818 0,51.3854658 0,48.5330545 L0,10.1992137 L11.3604694,0 Z" id="path-23"></path>
    </defs>
    <g id="01_Exchange_option1" stroke="none" stroke-width="1" fill="none" fill-rule="evenodd" transform="translate(-227.000000, -1303.000000)">
        <g id="Group-6" transform="translate(155.000000, 1299.000000)">
            <g id="fair" transform="translate(70.000000, 0.000000)">
                <g id="Group-8" transform="translate(53.000000, 13.000000)">
                    <g id="Rectangle-8" fill="#0E5E49" fill-rule="nonzero">
                        <rect id="path-1" x="0.0520298188" y="0" width="70.5778828" height="70.5778828" rx="2.975"></rect>
                    </g>
                    <g id="Path-6-Clipped">
                        <mask id="mask-2" fill="white">
                            <use xlink:href="#path-1"></use>
                        </mask>
                        <g id="path-1"></g>
                        <path d="M4.4306161,-1.8216558 L61.2076556,23.7684062 C62.9157571,24.5382671 64.3054435,26.6661876 64.3117717,28.5708237 L64.4615011,73.6344203 L40.4834771,76.6658442 L8.03526647,77.6109789 L-7.97586567,77.6109789 L-2.76808893,-8.58381881 L4.4306161,-1.8216558 Z" id="Path-6" fill="#0C4E3D" fill-rule="nonzero" mask="url(#mask-2)"></path>
                    </g>
                </g>
                <g id="Group-7-Copy" transform="translate(58.500000, 45.000000) rotate(23.000000) translate(-58.500000, -45.000000) translate(7.000000, 18.000000)">
                    <g id="Rectangle-7" fill="#86C639" fill-rule="nonzero">
                        <path d="M11.3604694,1.15463195e-14 L97.4056325,1.15463195e-14 C100.258294,1.15463195e-14 102.570833,2.30712891 102.570833,5.14832799 L102.570833,48.5448537 C102.570833,51.388197 100.284684,53.6931818 97.4140366,53.6931818 L5.15679677,53.6931818 C2.30877656,53.6931818 -1.47437618e-13,51.3854658 -1.47437618e-13,48.5330545 L-1.47437618e-13,10.1992137 L11.3604694,1.15463195e-14 Z" id="path-3"></path>
                    </g>
                    <g id="$-Clipped">
                        <mask id="mask-4" fill="white">
                            <use xlink:href="#path-3"></use>
                        </mask>
                        <g id="path-3"></g>
                        <text id="$" fill="#AADA71" mask="url(#mask-4)" font-family=".AppleSystemUIFont" font-size="8.4" font-weight="normal">
                            <tspan x="11.7093833" y="19.5977273">$</tspan>
                        </text>
                    </g>
                    <g id="Oval-Copy-Clipped">
                        <mask id="mask-6" fill="white">
                            <use xlink:href="#path-5"></use>
                        </mask>
                        <g id="path-3"></g>
                        <ellipse id="Oval-Copy" fill="#AADA71" fill-rule="nonzero" mask="url(#mask-6)" cx="51.2854167" cy="24.2693182" rx="17.6668797" ry="17.6824728"></ellipse>
                    </g>
                    <g id="Path-5-Clipped">
                        <mask id="mask-8" fill="white">
                            <use xlink:href="#path-7"></use>
                        </mask>
                        <g id="path-3"></g>
                        <polygon id="Path-5" fill="#4E9841" fill-rule="nonzero" opacity="0.636662138" mask="url(#mask-8)" transform="translate(63.864160, 45.849466) rotate(-25.000000) translate(-63.864160, -45.849466) " points="24.0701909 13.2737363 115.072606 20.9536188 117.544427 77.4066236 10.1838936 78.4251961 12.124543 22.8032182"></polygon>
                    </g>
                    <g id="$-copy-Clipped">
                        <mask id="mask-10" fill="white">
                            <use xlink:href="#path-9"></use>
                        </mask>
                        <g id="path-3"></g>
                        <text id="$" fill="#AADA71" mask="url(#mask-10)" font-family=".AppleSystemUIFont" font-size="8.4" font-weight="normal">
                            <tspan x="76.0843833" y="19.5977273">$</tspan>
                        </text>
                    </g>
                    <g id="Path-4-Clipped">
                        <mask id="mask-12" fill="white">
                            <use xlink:href="#path-11"></use>
                        </mask>
                        <g id="path-3"></g>
                        <polygon id="Path-4" fill="#4E9840" fill-rule="nonzero" mask="url(#mask-12)" points="11.1258276 10.0425914 -0.85541049 17.4704992 -3.97054222 4.16107775 3.140138 3.27791588"></polygon>
                    </g>
                    <g id="Path-3-Clipped">
                        <mask id="mask-14" fill="white">
                            <use xlink:href="#path-13"></use>
                        </mask>
                        <g id="path-3"></g>
                        <path d="M11.3003547,0.0373482372 L11.3003547,8.86262114 C11.3003547,9.56944432 10.7222695,10.1424377 9.99919144,10.1424377 L-0.0424442903,10.1424377 L11.3003547,0.0373482372 Z" id="Path-3" fill="#9ADA4E" fill-rule="nonzero" mask="url(#mask-14)"></path>
                    </g>
                </g>
                <g id="Group-7" transform="translate(11.000000, 39.000000)">
                    <g id="Rectangle-7" fill="#86C639" fill-rule="nonzero">
                        <path d="M11.3604694,0 L97.4056325,0 C100.258294,0 102.570833,2.30712891 102.570833,5.14832799 L102.570833,48.5448537 C102.570833,51.388197 100.284684,53.6931818 97.4140366,53.6931818 L5.15679677,53.6931818 C2.30877656,53.6931818 0,51.3854658 0,48.5330545 L0,10.1992137 L11.3604694,0 Z" id="path-5"></path>
                    </g>
                    <g id="Oval-Copy-Clipped">
                        <mask id="mask-16" fill="white">
                            <use xlink:href="#path-15"></use>
                        </mask>
                        <g id="path-5"></g>
                        <ellipse id="Oval-Copy" fill="#AADA71" fill-rule="nonzero" mask="url(#mask-16)" cx="51.2854167" cy="27.2761364" rx="17.6668797" ry="17.6824728"></ellipse>
                    </g>
                    <g id="$-Clipped">
                        <mask id="mask-18" fill="white">
                            <use xlink:href="#path-17"></use>
                        </mask>
                        <g id="path-5"></g>
                        <text id="$" fill="#AADA71" mask="url(#mask-18)" font-family=".AppleSystemUIFont" font-size="8.4" font-weight="normal">
                            <tspan x="11.7093833" y="22.6045455">$</tspan>
                        </text>
                    </g>
                    <g id="$-copy-Clipped">
                        <mask id="mask-20" fill="white">
                            <use xlink:href="#path-19"></use>
                        </mask>
                        <g id="path-5"></g>
                        <text id="$" fill="#AADA71" mask="url(#mask-20)" font-family=".AppleSystemUIFont" font-size="8.4" font-weight="normal">
                            <tspan x="76.0843833" y="22.6045455">$</tspan>
                        </text>
                    </g>
                    <g id="Path-4-Clipped">
                        <mask id="mask-22" fill="white">
                            <use xlink:href="#path-21"></use>
                        </mask>
                        <g id="path-5"></g>
                        <polygon id="Path-4" fill="#4E9840" fill-rule="nonzero" mask="url(#mask-22)" points="11.1258276 10.0425914 -0.85541049 17.4704992 -3.97054222 4.16107775 3.140138 3.27791588"></polygon>
                    </g>
                    <g id="Path-3-Clipped">
                        <mask id="mask-24" fill="white">
                            <use xlink:href="#path-23"></use>
                        </mask>
                        <g id="path-5"></g>
                        <path d="M11.3003547,0.0373482372 L11.3003547,8.86262114 C11.3003547,9.56944432 10.7222695,10.1424377 9.99919144,10.1424377 L-0.0424442903,10.1424377 L11.3003547,0.0373482372 Z" id="Path-3" fill="#9ADA4E" fill-rule="nonzero" mask="url(#mask-24)"></path>
                    </g>
                </g>
            </g>
        </g>
    </g>
</svg>