<?xml version="1.0" encoding="UTF-8"?>
<svg width="118px" height="103px" viewBox="0 0 118 103" version="1.1" xmlns="http://www.w3.org/2000/svg" xmlns:xlink="http://www.w3.org/1999/xlink">
    <!-- Generator: Sketch 48.1 (47250) - http://www.bohemiancoding.com/sketch -->
    <title>cancel</title>
    <desc>Created with Sketch.</desc>
    <defs>
        <rect id="path-1" x="0.350206839" y="0.318813194" width="79.3931381" height="78.2572087" rx="2.975"></rect>
        <path d="M0.113179471,5.28013721 C0.113179471,2.37484894 2.48482772,0.0196474534 5.39057694,0.0196474534 L68.628797,0.0196474534 C71.5434232,0.0196474534 73.9061945,2.38690753 73.9061945,5.28013721 L73.9061945,96.5910045 C73.9061945,99.4962927 71.5345463,101.851494 68.628797,101.851494 L5.39057694,101.851494 C2.4759508,101.851494 0.113179471,99.4842342 0.113179471,96.5910045 L0.113179471,5.28013721 Z" id="path-3"></path>
    </defs>
    <g id="01_Exchange_option1" stroke="none" stroke-width="1" fill="none" fill-rule="evenodd" transform="translate(-657.000000, -1289.000000)">
        <g id="Group-8" transform="translate(584.000000, 1289.000000)">
            <g id="cancel" transform="translate(73.000000, 0.000000)">
                <g id="Group-15" transform="translate(37.760000, 23.600000)">
                    <g id="Rectangle-8-Copy" fill="#0E3A5E" fill-rule="nonzero">
                        <rect id="path-1" x="0.350206839" y="0.318813194" width="79.3931381" height="78.2572087" rx="2.975"></rect>
                    </g>
                    <g id="Path-8-Clipped">
                        <mask id="mask-2" fill="white">
                            <use xlink:href="#path-1"></use>
                        </mask>
                        <g id="path-1"></g>
                        <path d="M51.4241956,-2.20987267 L51.4241956,70.3278204 C51.4241956,70.3278204 51.4457906,76.9082205 48.1264342,77.8483602 C44.8070778,78.7885001 38.3357276,78.2519109 38.3357276,78.2519109 L29.8191355,7.48953282 C29.8191355,7.48953282 36.5591243,1.20954804 40.6216674,-0.614295637 C44.6842102,-2.43813931 51.4241956,-2.20987267 51.4241956,-2.20987267 Z" id="Path-8" fill="#0A2C48" fill-rule="nonzero" opacity="0.532495471" mask="url(#mask-2)"></path>
                    </g>
                </g>
                <g id="Group-11">
                    <g id="Group-16" transform="translate(10.551484, 0.000000)">
                        <g id="Rectangle-3-Copy" fill="#39A4DA" fill-rule="nonzero">
                            <path d="M0.113179471,5.28013721 C0.113179471,2.37484894 2.48482772,0.0196474534 5.39057694,0.0196474534 L68.628797,0.0196474534 C71.5434232,0.0196474534 73.9061945,2.38690753 73.9061945,5.28013721 L73.9061945,96.5910045 C73.9061945,99.4962927 71.5345463,101.851494 68.628797,101.851494 L5.39057694,101.851494 C2.4759508,101.851494 0.113179471,99.4842342 0.113179471,96.5910045 L0.113179471,5.28013721 Z" id="path-3"></path>
                        </g>
                        <g id="Rectangle-3-Clipped">
                            <mask id="mask-4" fill="white">
                                <use xlink:href="#path-3"></use>
                            </mask>
                            <g id="path-3"></g>
                            <rect id="Rectangle-3" fill="#389FD4" fill-rule="nonzero" mask="url(#mask-4)" x="-8.04023989" y="3.36712114" width="73.7930149" height="97.0497414" rx="1.925"></rect>
                        </g>
                    </g>
                    <rect id="Rectangle-3-Copy-2" fill="#47B9F3" fill-rule="nonzero" x="0.113179471" y="4.80175272" width="73.7930149" height="97.0497414" rx="1.925"></rect>
                    <rect id="Rectangle-9" fill="#3AA5DB" fill-rule="nonzero" x="12.5629213" y="24.1920536" width="38.9337381" height="3.61115318" rx="0.66074644"></rect>
                    <path d="M12.5629213,37.9654307 C12.5629213,36.9682385 13.3621225,36.1598542 14.387032,36.1598542 L40.6181909,36.1598542 C41.6256195,36.1598542 42.4423016,36.9612862 42.4423016,37.9654307 C42.4423016,38.9626232 41.6431004,39.7710075 40.6181909,39.7710075 L14.387032,39.7710075 C13.3796034,39.7710075 12.5629213,38.9695755 12.5629213,37.9654307 Z" id="Rectangle-9-Copy" fill="#3AA5DB" fill-rule="nonzero"></path>
                    <rect id="Rectangle-9-Copy-2" fill="#3AA5DB" fill-rule="nonzero" x="12.1102034" y="47.438852" width="47.9880958" height="3.61115318" rx="0.66074644"></rect>
                    <g id="Group-10" transform="translate(11.743769, 22.386478)" fill="#DFF5FF" fill-rule="nonzero">
                        <rect id="Rectangle-9" x="0.819151314" y="0" width="38.9337381" height="3.61115318" rx="0.66074644"></rect>
                        <path d="M0.819151314,13.7733773 C0.819151314,12.7761848 1.61835256,11.9678007 2.64326204,11.9678007 L28.8744209,11.9678007 C29.8818495,11.9678007 30.6985316,12.7692326 30.6985316,13.7733773 C30.6985316,14.7705697 29.8993304,15.5789538 28.8744209,15.5789538 L2.64326204,15.5789538 C1.6358335,15.5789538 0.819151314,14.7775219 0.819151314,13.7733773 Z" id="Rectangle-9-Copy"></path>
                        <rect id="Rectangle-9-Copy-2" x="0.366433434" y="23.2467986" width="47.9880958" height="3.61115318" rx="0.66074644"></rect>
                    </g>
                </g>
                <g id="Group-13-Copy" opacity="0.806838768" transform="translate(42.480000, 78.352000)" fill="#42AADF" fill-rule="nonzero">
                    <polygon id="Path-7" transform="translate(7.689272, 9.309334) rotate(31.000000) translate(-7.689272, -9.309334) " points="4.21413026 1.17205226 4.21413026 17.8045133 7.68927193 15.4775588 11.1644136 17.8045133 11.1644136 0.814155318"></polygon>
                    <polygon id="Path-7-Copy" transform="translate(26.770780, 9.309335) scale(-1, 1) rotate(31.000000) translate(-26.770780, -9.309335) " points="23.295638 1.1720532 23.3061504 11.4844387 24.143997 12.8473967 26.7707797 15.4775598 30.2459214 17.8045143 30.2459214 0.814156263"></polygon>
                </g>
                <g id="Group-13" transform="translate(41.536000, 78.352000)" fill="#97D7F7" fill-rule="nonzero">
                    <polygon id="Path-7" transform="translate(7.330733, 9.107044) rotate(31.000000) translate(-7.330733, -9.107044) " points="3.85559178 1.19581944 3.85559178 17.3662231 7.33073345 15.1039124 10.8058751 17.3662231 10.8058751 0.847865042"></polygon>
                    <polygon id="Path-7-Copy" transform="translate(26.646425, 9.107044) scale(-1, 1) rotate(31.000000) translate(-26.646425, -9.107044) " points="23.1712832 1.19581941 23.1712832 17.366223 26.6464248 15.1039124 30.1215664 17.366223 30.1215664 0.847865014"></polygon>
                </g>
                <g id="Group-12" transform="translate(44.368000, 59.472000)" fill-rule="nonzero">
                    <path d="M17.1109889,28.9840224 C15.898284,27.5801761 13.9331821,27.5789247 12.7193962,28.9840224 L13.3733887,28.2269503 C12.1606839,29.6307962 10.8363583,29.3058974 10.4145856,27.4976707 L10.6418384,28.4719501 C10.2204414,26.6653343 8.48101159,25.7509976 6.75327612,26.4310753 L7.68418667,26.0646468 C5.95799002,26.7441189 4.93634604,25.8409902 5.40320972,24.0438776 L5.15166177,25.0121688 C5.61810963,23.2166568 4.50283441,21.5986987 2.65695277,21.3979589 L3.65152091,21.5061183 C1.80728332,21.3055572 1.32236729,20.031095 2.57091443,18.6567931 L1.89819243,19.3972722 C3.14562753,18.0241944 2.91000299,16.0732694 1.36884441,15.0376992 L2.1992266,15.5956684 C0.659440656,14.5610205 0.822340993,13.2071885 2.56654448,12.5705334 L1.62676092,12.9135657 C3.36941092,12.2774776 4.06741583,10.4405191 3.18404115,8.80735515 L3.66000683,9.6873102 C2.77741895,8.05560078 3.55081716,6.93254561 5.39110101,7.17938734 L4.39954895,7.04638805 C6.23819375,7.29300993 7.70992358,5.99084304 7.68670329,4.13422344 L7.69921446,5.13457723 C7.67601488,3.27961124 8.88273473,2.64461135 10.3975121,3.71840139 L9.58134422,3.13983918 C11.0947724,4.21267284 13.0030716,3.74360826 13.8453252,2.08886225 L13.3915157,2.98044576 C14.2330192,1.32717358 15.5966157,1.32569977 16.4388694,2.98044576 L15.9850598,2.08886225 C16.8265633,3.74213444 18.7342635,4.21362923 20.2490408,3.13983918 L19.432873,3.71840139 C20.9463012,2.64556773 22.1543909,3.27795763 22.1311706,5.13457723 L22.1436818,4.13422344 C22.1204822,5.98918942 23.5905523,7.29322979 25.4308361,7.04638805 L24.4392841,7.17938734 C26.2779289,6.93276547 27.0537529,8.05414618 26.1703782,9.6873102 L26.6463439,8.80735515 C25.763756,10.4390646 26.4594207,12.2769106 28.2036242,12.9135657 L27.2638407,12.5705334 C29.0064905,13.2066215 29.1723171,14.5600982 27.6311585,15.5956684 L28.4615407,15.0376992 C26.9217546,16.0723471 26.6836455,18.0229704 27.9321927,19.3972722 L27.2594707,18.6567931 C28.5069057,20.0298709 28.0247459,21.3053785 26.1788642,21.5061183 L27.1734323,21.3979589 C25.3291947,21.5985199 24.2118596,23.2150562 24.6787233,25.0121688 L24.4271753,24.0438776 C24.8936232,25.8393896 23.8739339,26.7447245 22.1461984,26.0646468 L23.0771089,26.4310753 C21.3509123,25.7516033 19.6103193,26.6637236 19.1885467,28.4719501 L19.4157994,27.4976707 C18.9944024,29.3042868 17.6707823,29.632048 16.4569964,28.2269503 L17.1109889,28.9840224 Z" id="Star-Copy" fill="#43ADE3" opacity="0.460314764"></path>
                    <path d="M16.1498252,27.5422769 C14.9371204,26.1384306 12.9720184,26.1371792 11.7582326,27.5422769 L12.4122251,26.7852048 C11.1995202,28.1890508 9.87519463,27.8641519 9.45342199,26.0559253 L9.68067472,27.0302046 C9.25927776,25.2235887 7.51984795,24.3092522 5.79211249,24.9893299 L6.72302303,24.6229014 C4.99682639,25.3023734 3.97518241,24.3992448 4.44204609,22.6021322 L4.19049814,23.5704234 C4.65694599,21.7749113 3.54167078,20.1569532 1.69578914,19.9562134 L2.69035727,20.0643728 C0.846119684,19.8638118 0.361203655,18.5893495 1.60975079,17.2150477 L0.937028782,17.9555268 C2.18446389,16.582449 1.94883935,14.631524 0.407680775,13.5959538 L1.23806296,14.153923 C-0.30172298,13.1192751 -0.138822644,11.7654431 1.60538085,11.128788 L0.665597283,11.4718202 C2.40824728,10.8357322 3.1062522,8.99877369 2.22287751,7.36560969 L2.69884319,8.24556475 C1.81625531,6.61385533 2.58965352,5.49080015 4.42993737,5.73764189 L3.43838531,5.6046426 C5.27703011,5.85126447 6.74875994,4.54909758 6.72553966,2.69247798 L6.73805082,3.69283177 C6.71485124,1.83786579 7.9215711,1.20286589 9.43634846,2.27665594 L8.62018058,1.69809372 C10.1336088,2.77092739 12.041908,2.30186281 12.8841616,0.647116795 L12.4303521,1.53870032 C13.2718556,-0.114571873 14.6354521,-0.116045682 15.4777057,1.53870032 L15.0238962,0.647116795 C15.8653997,2.30038899 17.7730998,2.77188377 19.2878772,1.69809372 L18.4717093,2.27665594 C19.9851375,1.20382227 21.1932272,1.83621217 21.170007,3.69283177 L21.1825181,2.69247798 C21.1593186,4.54744397 22.6293886,5.85148433 24.4696725,5.6046426 L23.4781204,5.73764189 C25.3167652,5.49102001 26.0925893,6.61240073 25.2092146,8.24556475 L25.6851803,7.36560969 C24.8025924,8.99731912 25.498257,10.8351651 27.2424606,11.4718202 L26.3026769,11.128788 C28.0453269,11.764876 28.2111534,13.1183527 26.6699948,14.153923 L27.500377,13.5959538 C25.9605911,14.6306016 25.7224819,16.5812249 26.9710291,17.9555268 L26.298307,17.2150477 C27.545742,18.5881255 27.0635823,19.863633 25.2177005,20.0643728 L26.2122687,19.9562134 C24.3680311,20.1567744 23.250696,21.7733107 23.7175596,23.5704234 L23.4660117,22.6021322 C23.9324596,24.3976442 22.9127702,25.3029791 21.1850348,24.6229014 L22.1159453,24.9893299 C20.3897487,24.3098579 18.6491557,25.2219782 18.2273831,27.0302046 L18.4546358,26.0559253 C18.0332388,27.8625413 16.7096186,28.1903025 15.4958327,26.7852048 L16.1498252,27.5422769 Z" id="Star" fill="#72C9F5"></path>
                    <circle id="Oval" fill="#97D7F8" cx="13.9540364" cy="13.9540364" r="9.13267809"></circle>
                </g>
            </g>
        </g>
    </g>
</svg>