<?xml version="1.0" encoding="UTF-8"?>
<svg width="22px" height="5px" viewBox="0 0 22 5" version="1.1" xmlns="http://www.w3.org/2000/svg" xmlns:xlink="http://www.w3.org/1999/xlink">
    <!-- Generator: Sketch 48.2 (47327) - http://www.bohemiancoding.com/sketch -->
    <title>Shape</title>
    <desc>Created with Sketch.</desc>
    <defs></defs>
    <g id="03_01_API-Keys-Copy" stroke="none" stroke-width="1" fill="none" fill-rule="evenodd" transform="translate(-1102.000000, -291.000000)">
        <g id="Group-6" transform="translate(247.000000, 193.000000)" fill="#56A2FD">
            <g id="Group-2">
                <g id="1" transform="translate(40.000000, 76.000000)">
                    <g id="Logo">
                        <g id="Group-4">
                            <path d="M834.578,27 C833.241,27 832.156,25.881 832.156,24.5 C832.156,23.119 833.241,22 834.578,22 C835.916,22 837,23.119 837,24.5 C837,25.881 835.916,27 834.578,27 L834.578,27 Z M826,27 C824.671,27 823.594,25.881 823.594,24.5 C823.594,23.119 824.671,22 826,22 C827.329,22 828.406,23.119 828.406,24.5 C828.406,25.881 827.329,27 826,27 L826,27 Z M817.422,27 C816.084,27 815,25.881 815,24.5 C815,23.119 816.084,22 817.422,22 C818.759,22 819.844,23.119 819.844,24.5 C819.844,25.881 818.759,27 817.422,27 L817.422,27 Z" id="Shape"></path>
                        </g>
                    </g>
                </g>
            </g>
        </g>
    </g>
</svg>