<?xml version="1.0" encoding="UTF-8"?>
<svg width="16px" height="14px" viewBox="0 0 16 14" version="1.1" xmlns="http://www.w3.org/2000/svg" xmlns:xlink="http://www.w3.org/1999/xlink">
    <!-- Generator: Sketch 48.1 (47250) - http://www.bohemiancoding.com/sketch -->
    <title>Upload</title>
    <desc>Created with Sketch.</desc>
    <defs></defs>
    <g id="01_Exchange_option1" stroke="none" stroke-width="1" fill="none" fill-rule="evenodd" transform="translate(-400.000000, -839.000000)">
        <g id="Plan-" transform="translate(383.000000, 657.000000)" fill="#D0D7DD">
            <g id="Upload" transform="translate(17.000000, 182.000000)">
                <path d="M12.42,11.777 C12.063,11.893 11.682,11.689 11.569,11.323 C11.457,10.957 11.655,10.567 12.013,10.452 C13.762,9.89 14.648,8.444 14.648,6.156 C14.648,3.528 12.559,1.391 9.991,1.391 C7.758,1.391 5.835,3.019 5.419,5.261 L5.28,6.008 L4.566,5.8 C4.337,5.734 4.106,5.7 3.878,5.7 C2.492,5.7 1.365,6.853 1.365,8.271 C1.365,9.689 2.492,10.842 3.878,10.842 L4.017,10.832 C4.396,10.817 4.711,11.106 4.731,11.489 C4.751,11.872 4.463,12.199 4.089,12.219 L4.044,12.223 C3.989,12.227 3.934,12.231 3.878,12.231 C1.744,12.231 0.008,10.455 0.008,8.271 C0.008,6.088 1.744,4.311 3.878,4.311 C4.002,4.311 4.125,4.317 4.249,4.33 C5.02,1.785 7.336,0.002 9.991,0.002 C13.307,0.002 16.005,2.763 16.005,6.156 C16.005,9.078 14.766,11.022 12.42,11.777 L12.42,11.777 Z M7.572,6.76 C7.575,6.758 7.575,6.754 7.577,6.752 C7.71,6.616 7.885,6.548 8.059,6.549 C8.233,6.548 8.407,6.616 8.54,6.752 C8.542,6.754 8.542,6.756 8.543,6.758 L10.417,8.675 C10.682,8.946 10.682,9.386 10.417,9.657 C10.284,9.793 10.111,9.86 9.937,9.86 C9.763,9.86 9.59,9.793 9.457,9.657 L8.739,8.922 L8.739,13.295 C8.739,13.678 8.435,13.989 8.06,13.989 C7.685,13.989 7.381,13.678 7.381,13.295 L7.381,8.919 L6.66,9.657 C6.528,9.793 6.354,9.86 6.18,9.86 C6.007,9.86 5.833,9.793 5.7,9.657 C5.435,9.386 5.435,8.946 5.7,8.675 L7.572,6.76 L7.572,6.76 Z" id="Shape"></path>
            </g>
        </g>
    </g>
</svg>