<?xml version="1.0" encoding="UTF-8"?>
<svg width="15px" height="12px" viewBox="0 0 15 12" version="1.1" xmlns="http://www.w3.org/2000/svg" xmlns:xlink="http://www.w3.org/1999/xlink">
    <!-- Generator: Sketch 48.1 (47250) - http://www.bohemiancoding.com/sketch -->
    <title>Wifi</title>
    <desc>Created with Sketch.</desc>
    <defs></defs>
    <g id="01_Exchange_option1" stroke="none" stroke-width="1" fill="none" fill-rule="evenodd" transform="translate(-400.000000, -808.000000)">
        <g id="Plan-" transform="translate(383.000000, 657.000000)" fill="#D0D7DD">
            <g id="Wifi" transform="translate(16.000000, 151.000000)">
                <path d="M15.611,5.212 C15.202,5.507 14.639,5.405 14.352,4.986 C13.02,3.031 10.84,1.864 8.521,1.864 C6.172,1.864 3.976,3.055 2.646,5.05 C2.471,5.313 2.188,5.454 1.899,5.454 C1.723,5.454 1.546,5.401 1.39,5.291 C0.978,5.001 0.873,4.423 1.155,4 C2.822,1.499 5.576,0.006 8.521,0.006 C11.428,0.006 14.162,1.468 15.832,3.918 C16.119,4.339 16.02,4.918 15.611,5.212 L15.611,5.212 Z M8.512,3.696 C10.491,3.696 12.351,4.692 13.487,6.359 C13.774,6.779 13.675,7.359 13.266,7.653 C12.857,7.947 12.293,7.845 12.008,7.425 C11.209,6.253 9.902,5.554 8.512,5.554 C7.104,5.554 5.788,6.268 4.991,7.464 C4.816,7.726 4.533,7.868 4.244,7.868 C4.069,7.868 3.891,7.815 3.735,7.705 C3.323,7.415 3.218,6.837 3.5,6.414 C4.634,4.712 6.507,3.696 8.512,3.696 L8.512,3.696 Z M8.362,7.363 C9.489,7.363 10.403,8.302 10.403,9.46 C10.403,10.619 9.489,11.557 8.362,11.557 C7.236,11.557 6.323,10.619 6.323,9.46 C6.323,8.302 7.236,7.363 8.362,7.363 L8.362,7.363 Z" id="Shape"></path>
            </g>
        </g>
    </g>
</svg>