<?xml version="1.0" encoding="UTF-8"?>
<svg width="15px" height="16px" viewBox="0 0 15 16" version="1.1" xmlns="http://www.w3.org/2000/svg" xmlns:xlink="http://www.w3.org/1999/xlink">
    <!-- Generator: Sketch 48.2 (47327) - http://www.bohemiancoding.com/sketch -->
    <title>Group</title>
    <desc>Created with Sketch.</desc>
    <defs></defs>
    <g id="03_01_API-Keys-Copy" stroke="none" stroke-width="1" fill="none" fill-rule="evenodd" transform="translate(-917.000000, -449.000000)">
        <g id="Dropdown" transform="translate(886.000000, 315.000000)">
            <g id="Share" transform="translate(31.000000, 132.000000)">
                <g transform="translate(0.000000, 2.000000)" id="Group">
                    <g>
                        <polygon id="Shape" fill="#D1D8DE" points="11.739 7.53 12.614 8.21 12.324 8.583 12.486 8.874 11.803 9.253 11.386 9.789 11.158 9.611 3.486 13.874 2.514 12.125 9.442 8.277 2.386 2.789 3.614 1.21 11.342 7.221 11.514 7.125"></polygon>
                        <path d="M12.5,11 C11.119,11 10,9.881 10,8.5 C10,7.119 11.119,6 12.5,6 C13.881,6 15,7.119 15,8.5 C15,9.881 13.881,11 12.5,11 L12.5,11 Z M2.5,16 C1.119,16 0,14.881 0,13.5 C0,12.119 1.119,11 2.5,11 C3.881,11 5,12.119 5,13.5 C5,14.881 3.881,16 2.5,16 L2.5,16 Z M2.5,5 C1.119,5 0,3.881 0,2.5 C0,1.119 1.119,0 2.5,0 C3.881,0 5,1.119 5,2.5 C5,3.881 3.881,5 2.5,5 L2.5,5 Z" id="Shape" fill="#696F75"></path>
                    </g>
                </g>
            </g>
        </g>
    </g>
</svg>