<?xml version="1.0" encoding="UTF-8"?>
<svg width="25px" height="25px" viewBox="0 0 25 25" version="1.1" xmlns="http://www.w3.org/2000/svg" xmlns:xlink="http://www.w3.org/1999/xlink">
    <!-- Generator: Sketch 48.2 (47327) - http://www.bohemiancoding.com/sketch -->
    <title>business-24px-outline_payment</title>
    <desc>Created with Sketch.</desc>
    <defs></defs>
    <g id="03_01_API-Keys" stroke="none" stroke-width="1" fill="none" fill-rule="evenodd" transform="translate(-235.000000, -208.000000)" stroke-opacity="0.835088315">
        <g id="Group-14" transform="translate(208.000000, 206.000000)" stroke="#45678E" stroke-width="2">
            <g id="Group-2">
                <g id="Group-10">
                    <g id="business-24px-outline_payment" transform="translate(28.000000, 3.000000)">
                        <path d="M4.38095238,4.38095238 L4.38095238,3.28571429 C4.38095238,1.42380952 5.8047619,0 7.66666667,0 L14.2380952,0 C16.1,0 17.5238095,1.42380952 17.5238095,3.28571429 L17.5238095,4.38095238" id="Shape" stroke-linecap="square"></path>
                        <polyline id="Shape" points="12.5952381 15.3333333 0 15.3333333 0 4.38095238 23 4.38095238 23 15.3333333 19.7142857 15.3333333"></polyline>
                        <path d="M4.38095238,15.3333333 C4.38095238,19.6047619 7.77619048,23 12.047619,23 C16.3190476,23 19.7142857,19.6047619 19.7142857,15.3333333 L19.7142857,7.66666667 C17.852381,7.66666667 16.4285714,9.09047619 16.4285714,10.952381 L16.4285714,13.1428571 C14.0190476,13.1428571 12.047619,15.1142857 12.047619,17.5238095" id="Shape" stroke-linecap="square"></path>
                        <circle id="Oval" stroke-linecap="square" cx="9.85714286" cy="9.85714286" r="2.19047619"></circle>
                    </g>
                </g>
            </g>
        </g>
    </g>
</svg>