<?xml version="1.0" encoding="UTF-8"?>
<svg width="94px" height="18px" viewBox="0 0 94 18" version="1.1" xmlns="http://www.w3.org/2000/svg" xmlns:xlink="http://www.w3.org/1999/xlink">
    <!-- Generator: Sketch 48.1 (47250) - http://www.bohemiancoding.com/sketch -->
    <title>lunabot</title>
    <desc>Created with Sketch.</desc>
    <defs></defs>
    <g id="01_Exchange_option1-Copy-2" stroke="none" stroke-width="1" fill="none" fill-rule="evenodd" transform="translate(-290.000000, -417.000000)">
        <g id="Group-20" transform="translate(236.000000, 334.000000)" fill="#FFFFFF">
            <g id="Group-17">
                <path d="M57.4453125,97.5546875 L57.4453125,83.7265625 L54,83.7265625 L54,101 L64.359375,101 L64.359375,97.5546875 L57.4453125,97.5546875 Z M78.1875,83.7265625 L78.1875,99.265625 C78.1875,99.7500024 78.0234391,100.156248 77.6953125,100.484375 C77.3515608,100.828127 76.9453148,101 76.4765625,101 L69.5625,101 C69.0781226,101 68.6718766,100.828127 68.34375,100.484375 C67.9999983,100.156248 67.828125,99.7500024 67.828125,99.265625 L67.828125,83.7265625 L71.2734375,83.7265625 L71.2734375,97.5546875 L74.7421875,97.5546875 L74.7421875,83.7265625 L78.1875,83.7265625 Z M92.015625,85.4375 L92.015625,101 L88.5703125,101 L88.5703125,87.171875 L85.1015625,87.171875 L85.1015625,101 L81.65625,101 L81.65625,83.7265625 L90.3046875,83.7265625 C90.7734398,83.7265625 91.1796858,83.8906234 91.5234375,84.21875 C91.8515641,84.5625017 92.015625,84.9687477 92.015625,85.4375 Z M105.84375,101 L102.398438,101 L102.398438,94.0859375 L98.9296875,94.0859375 L98.9296875,101 L95.484375,101 L95.484375,85.4375 C95.484375,84.9687477 95.6562483,84.5625017 96,84.21875 C96.3281266,83.8906234 96.7343726,83.7265625 97.21875,83.7265625 L104.132812,83.7265625 C104.601565,83.7265625 105.007811,83.8906234 105.351562,84.21875 C105.679689,84.5625017 105.84375,84.9687477 105.84375,85.4375 L105.84375,101 Z M102.398438,90.640625 L102.398438,87.171875 L98.9296875,87.171875 L98.9296875,90.640625 L102.398438,90.640625 Z M117.960938,92.3515625 C118.42969,92.3515625 118.835936,92.5234358 119.179688,92.8671875 C119.507814,93.1953141 119.671875,93.6015601 119.671875,94.0859375 L119.671875,99.265625 C119.671875,99.7500024 119.507814,100.156248 119.179688,100.484375 C118.835936,100.828127 118.42969,101 117.960938,101 L109.3125,101 L109.3125,83.7265625 L117.960938,83.7265625 C118.42969,83.7265625 118.835936,83.8906234 119.179688,84.21875 C119.507814,84.5625017 119.671875,84.9687477 119.671875,85.4375 L119.671875,90.640625 C119.671875,91.1093773 119.507814,91.5156233 119.179688,91.859375 C118.835936,92.1875016 118.42969,92.3515625 117.960938,92.3515625 Z M112.757812,90.640625 L116.226562,90.640625 L116.226562,87.171875 L112.757812,87.171875 L112.757812,90.640625 Z M112.757812,97.5546875 L116.226562,97.5546875 L116.226562,94.0859375 L112.757812,94.0859375 L112.757812,97.5546875 Z M133.5,85.4375 L133.5,99.265625 C133.5,99.7500024 133.335939,100.156248 133.007812,100.484375 C132.664061,100.828127 132.257815,101 131.789062,101 L124.875,101 C124.390623,101 123.984377,100.828127 123.65625,100.484375 C123.312498,100.156248 123.140625,99.7500024 123.140625,99.265625 L123.140625,85.4375 C123.140625,84.9687477 123.312498,84.5625017 123.65625,84.21875 C123.984377,83.8906234 124.390623,83.7265625 124.875,83.7265625 L131.789062,83.7265625 C132.257815,83.7265625 132.664061,83.8906234 133.007812,84.21875 C133.335939,84.5625017 133.5,84.9687477 133.5,85.4375 Z M126.585938,97.5546875 L130.054688,97.5546875 L130.054688,87.171875 L126.585938,87.171875 L126.585938,97.5546875 Z M147.328125,83.7265625 L136.96875,83.7265625 L136.96875,87.171875 L140.414062,87.171875 L140.414062,101 L143.882812,101 L143.882812,87.171875 L147.328125,87.171875 L147.328125,83.7265625 Z" id="lunabot"></path>
            </g>
        </g>
    </g>
</svg>