<?xml version="1.0" encoding="UTF-8"?>
<svg width="17px" height="17px" viewBox="0 0 17 17" version="1.1" xmlns="http://www.w3.org/2000/svg" xmlns:xlink="http://www.w3.org/1999/xlink">
    <!-- Generator: Sketch 48.1 (47250) - http://www.bohemiancoding.com/sketch -->
    <title>business-24px-outline_wallet-43</title>
    <desc>Created with Sketch.</desc>
    <defs></defs>
    <g id="01_Exchange_option1-Copy-2" stroke="none" stroke-width="1" fill="none" fill-rule="evenodd" transform="translate(-289.000000, -520.000000)" stroke-linecap="square">
        <g id="Group-20" transform="translate(236.000000, 334.000000)" stroke="#A4B8C3">
            <g id="Group-17">
                <g id="Group-12" transform="translate(54.000000, 185.000000)">
                    <g id="business-24px-outline_wallet-43" transform="translate(0.000000, 2.000000)">
                        <path d="M13.6363636,7.5 L13.6363636,2.72727273 L1.36363636,2.72727273 C0.613636364,2.72727273 0,2.11363636 0,1.36363636 L0,12.9545455 C0,14.1136364 0.886363636,15 2.04545455,15 L13.6363636,15 L13.6363636,10.2272727" id="Shape"></path>
                        <path d="M10.2272727,2.72727273 L10.2272727,0 L1.36363636,0 C0.613636364,0 0,0.613636364 0,1.36363636 C0,2.11363636 0.613636364,2.72727273 1.36363636,2.72727273" id="Shape"></path>
                        <path d="M15,10.2272727 L11.5909091,10.2272727 C10.8409091,10.2272727 10.2272727,9.61363636 10.2272727,8.86363636 C10.2272727,8.11363636 10.8409091,7.5 11.5909091,7.5 L15,7.5 L15,10.2272727 Z" id="Shape"></path>
                    </g>
                </g>
            </g>
        </g>
    </g>
</svg>