<?xml version="1.0" encoding="UTF-8"?>
<svg width="21px" height="21px" viewBox="0 0 21 21" version="1.1" xmlns="http://www.w3.org/2000/svg" xmlns:xlink="http://www.w3.org/1999/xlink">
    <!-- Generator: Sketch 48.1 (47250) - http://www.bohemiancoding.com/sketch -->
    <title></title>
    <desc>Created with Sketch.</desc>
    <defs></defs>
    <g id="03_01_Profile-Settings" stroke="none" stroke-width="1" fill="none" fill-rule="evenodd" transform="translate(-358.000000, -140.000000)">
        <g id="Group-12" transform="translate(135.000000, 120.000000)" fill="#262E6C">
            <g id="Group-6">
                <path d="M243.044922,22.71875 L243.044922,38.3339844 C243.044922,39.3105469 242.263672,40.0917969 241.287109,40.0917969 L225.671875,40.0917969 C224.695312,40.0917969 223.914062,39.3105469 223.914062,38.3339844 L223.914062,22.71875 C223.914062,21.7421875 224.695312,20.9609375 225.671875,20.9609375 L241.287109,20.9609375 C242.263672,20.9609375 243.044922,21.7421875 243.044922,22.71875 Z M241.130859,36.7714844 L241.130859,24.28125 C241.130859,23.5 240.505859,22.875 239.724609,22.875 L227.224609,22.875 C226.443359,22.875 225.818359,23.5 225.818359,24.28125 L225.818359,36.7714844 C225.818359,37.5527344 226.443359,38.1777344 227.224609,38.1777344 L239.724609,38.1777344 C240.505859,38.1777344 241.130859,37.5527344 241.130859,36.7714844 Z M229.675781,28.1972656 C229.724609,26.2441406 231.111328,24.9257812 233.542969,24.9257812 C235.828125,24.9257812 237.322266,26.15625 237.322266,27.9628906 C237.322266,29.1152344 236.755859,29.9257812 235.632812,30.5703125 C234.568359,31.1757812 234.275391,31.546875 234.275391,32.2792969 L234.275391,32.6894531 L232.146484,32.6894531 L232.136719,32.2890625 C232.029297,31.0292969 232.46875,30.3554688 233.552734,29.7109375 C234.578125,29.1054688 234.880859,28.7441406 234.880859,28.03125 C234.880859,27.328125 234.285156,26.8300781 233.40625,26.8300781 C232.507812,26.8300781 231.912109,27.3671875 231.873047,28.1972656 L229.675781,28.1972656 Z M233.298828,36.4394531 C232.400391,36.4394531 231.833984,35.9316406 231.833984,35.1015625 C231.833984,34.2617188 232.400391,33.7636719 233.298828,33.7636719 C234.197266,33.7636719 234.753906,34.2617188 234.753906,35.1015625 C234.753906,35.9316406 234.197266,36.4394531 233.298828,36.4394531 Z" id=""></path>
            </g>
        </g>
    </g>
</svg>