<?xml version="1.0" encoding="UTF-8"?>
<svg width="16px" height="16px" viewBox="0 0 16 16" version="1.1" xmlns="http://www.w3.org/2000/svg" xmlns:xlink="http://www.w3.org/1999/xlink">
    <!-- Generator: Sketch 48.1 (47250) - http://www.bohemiancoding.com/sketch -->
    <title>shopping-16px_bardcode-qr</title>
    <desc>Created with Sketch.</desc>
    <defs></defs>
    <g id="01_Exchange_option1-Copy-2" stroke="none" stroke-width="1" fill="none" fill-rule="evenodd" transform="translate(-798.000000, -654.000000)">
        <g id="Group-20" transform="translate(236.000000, 334.000000)" fill-rule="nonzero">
            <g id="Group-17">
                <g id="shopping-16px_bardcode-qr" transform="translate(562.000000, 320.000000)">
                    <path d="M6,7 L1,7 C0.4,7 0,6.6 0,6 L0,1 C0,0.4 0.4,0 1,0 L6,0 C6.6,0 7,0.4 7,1 L7,6 C7,6.6 6.6,7 6,7 Z M2,5 L5,5 L5,2 L2,2 L2,5 Z" id="Shape" fill="#4CA0FE"></path>
                    <path d="M6,16 L1,16 C0.4,16 0,15.6 0,15 L0,10 C0,9.4 0.4,9 1,9 L6,9 C6.6,9 7,9.4 7,10 L7,15 C7,15.6 6.6,16 6,16 Z M2,14 L5,14 L5,11 L2,11 L2,14 Z" id="Shape" fill="#4CA0FE"></path>
                    <path d="M15,7 L10,7 C9.4,7 9,6.6 9,6 L9,1 C9,0.4 9.4,0 10,0 L15,0 C15.6,0 16,0.4 16,1 L16,6 C16,6.6 15.6,7 15,7 Z M11,5 L14,5 L14,2 L11,2 L11,5 Z" id="Shape" fill="#4CA0FE"></path>
                    <rect id="Rectangle-path" fill="#4CA0FE" x="3" y="3" width="1" height="1"></rect>
                    <rect id="Rectangle-path" fill="#4CA0FE" x="3" y="12" width="1" height="1"></rect>
                    <rect id="Rectangle-path" fill="#696F75" x="9" y="14" width="7" height="2"></rect>
                    <path d="M16,13 L14,13 L14,11 L11,11 L11,9 L15,9 C15.6,9 16,9.4 16,10 L16,13 Z" id="Shape" fill="#696F75"></path>
                    <rect id="Rectangle-path" fill="#696F75" x="12" y="12" width="1" height="1"></rect>
                    <rect id="Rectangle-path" fill="#4CA0FE" x="12" y="3" width="1" height="1"></rect>
                </g>
            </g>
        </g>
    </g>
</svg>