<?xml version="1.0" encoding="UTF-8"?>
<svg width="251px" height="176px" viewBox="0 0 251 176" version="1.1" xmlns="http://www.w3.org/2000/svg" xmlns:xlink="http://www.w3.org/1999/xlink">
    <!-- Generator: Sketch 48.1 (47250) - http://www.bohemiancoding.com/sketch -->
    <title>Page 1</title>
    <desc>Created with Sketch.</desc>
    <defs>
        <polygon id="path-1" points="0.0918933039 0.0545505513 16.8441386 0.0545505513 16.8441386 11.8754776 0.0918933039 11.8754776"></polygon>
    </defs>
    <g id="01_Exchange_option1-Copy-3" stroke="none" stroke-width="1" fill="none" fill-rule="evenodd" transform="translate(-595.000000, -430.000000)">
        <g id="Page-1" transform="translate(595.000000, 430.000000)">
            <path d="M179.941742,71.127076 C180.297379,77.200654 178.335053,81.988889 175.653595,85.6421754 L175.925021,86.4840085 L177.07085,83.4730526 C184.37286,85.7813157 188.469352,95.7429794 186.513005,103.805616 C185.067737,109.76188 179.800478,115.462882 171.89993,118.873355 L172.438511,120.171828 C177.563139,124.592944 180.062508,137.303141 168.079647,144.586182 C156.096444,151.869395 137.279093,153.837992 124.886787,153.998446 C123.558699,154.015668 119.575287,153.884031 119.575287,153.884031 C93.563368,151.861551 74.1189543,129.172127 76.1449941,103.205915 C76.1724954,102.854653 76.5153216,99.330788 76.6560734,97.9936085 C77.3207156,91.6732951 79.2654473,85.5541896 82.332777,79.9855069 C92.0987979,60.8704212 83.3622806,50.1030735 83.3622806,50.1030735 L80.2741114,44.0467176 C76.4042917,36.4570897 79.5167166,27.1744172 87.1837596,23.4396245 L87.1839304,23.4396245 C94.9440677,19.6594749 103.059672,23.7295002 107.817731,30.9223395 C113.422179,39.3948946 117.829042,46.3374177 121.26892,61.0001832 C124.524147,64.218997 129.862465,65.8893631 136.979312,65.0026845 L136.106446,64.0085814 C132.295558,58.4124457 136.342854,48.1276559 149.559514,45.4454531 C162.776345,42.7630798 178.803429,51.6941501 179.941742,71.127076" id="Fill-1" fill="#FFDD00"></path>
            <path d="M176.101692,82.6501697 C178.01206,79.3389166 179.251637,75.2607414 178.963328,70.3350228 C178.217095,57.5880251 171.051768,49.371634 162.485594,46 C167.021398,50.3712351 170.223624,56.7440536 170.708964,65.035283 C170.997273,69.9610015 171.10524,77.696897 158.576475,88.0021262 C160.028069,90.9444606 160.934718,92.2852562 161.493115,96.2424996 C161.766779,95.8319096 175.847783,83.0900146 176.099989,82.652721 L175.487949,84.2622539 C177.581214,88.2410984 178.278912,93.2202243 177.20895,97.6317699 C175.768085,103.573078 167.339339,110.65771 159.505774,114.05945 L159.505774,120.684167 L167.238184,119.212064 C172.347201,123.621909 170.803989,131.045185 158.857291,138.309939 C146.910764,145.574694 128.163681,147.538348 115.809127,147.69857 C114.484914,147.715748 110.519938,147.584441 110.519938,147.584441 C104.221071,147.094421 98.3135411,145.385047 93,142.71111 C100.125649,148.418888 108.985581,152.122192 118.77907,152.884181 C118.77907,152.884181 122.751198,153.015488 124.075241,152.99848 C136.429795,152.838258 155.190161,150.874434 167.136688,143.609679 C179.083385,136.344924 176.591631,123.666472 171.482614,119.256627 L170.946014,117.961245 C178.822323,114.559505 184.073707,108.872818 185.514402,102.93151 C187.464959,94.8892877 183.381118,84.952807 176.101692,82.6501697" id="Fill-3" fill="#FF8900"></path>
            <path d="M147.422017,65 C143.537864,59.4522051 148.939011,54.3359748 157.217276,51.6257217 C160.538715,50.5382734 162.683017,49.8668379 167,49.8296487 C160.840269,44.3844623 157.593696,44.3525133 150.106572,45.830449 C136.635044,48.4894823 132.510101,58.6854298 136.394254,64.2332247 L147.422017,65 Z" id="Fill-5" fill="#F6FFF6"></path>
            <path d="M87.3559778,108.983607 C87.3834177,108.632852 87.7254782,105.114062 87.8657451,103.778808 C88.5289028,97.4675973 90.4692909,91.3573046 93.5297695,85.796642 C103.273978,66.7090861 94.5569737,55.9570755 94.5569737,55.9570755 L91.4758726,49.9096123 C87.6145258,42.3309151 90.7201694,33.0616116 98.3700877,29.3321979 C100.722414,28.1852623 103.107123,27.7657181 105.421102,27.9337741 C100.600895,22.6945804 93.7520151,20.2227775 87.158786,23.4371259 C79.5088677,27.1665396 76.4032241,36.4358431 80.2645709,44.0147105 L83.345672,50.0621738 C83.345672,50.0621738 92.0626759,60.8141844 82.3184678,79.9017403 C79.2579892,85.4624029 77.3177715,91.5726956 76.6544434,97.8837361 C76.5141765,99.2189898 76.1719455,102.73795 76.1446761,103.088535 C74.4633473,124.652662 87.6005502,143.951182 107,151 C93.9899406,141.723375 86.0242086,126.064196 87.3559778,108.983607" id="Fill-7" fill="#F6FFF6"></path>
            <path d="M169.383548,94 L169,93.1602993 C169.707273,92.4801043 170.378603,91.7602879 171,91 L169.383548,94 Z" id="Fill-9" fill="#FF8900"></path>
            <path d="M146.956235,151.460652 C146.959236,151.479991 146.962238,151.499329 146.965415,151.518667 C147.215046,153.098797 146.086588,154.574942 144.443508,154.822776 C144.111962,154.872817 143.781651,154.921163 143.452399,154.968151 C141.64743,155.225993 140.026595,153.885554 140.001173,152.132229 C140.00082,152.112043 140.000467,152.091687 140.00029,152.0715 C139.979458,150.621479 141.081789,149.382311 142.574631,149.170439 C142.881991,149.126674 143.190587,149.081721 143.500066,149.035242 C145.153032,148.787578 146.70378,149.871532 146.956235,151.460652" id="Fill-11" fill="#262E6C"></path>
            <path d="M104.551381,149.183915 C105.297142,148.171983 106.674599,147.743778 107.915211,148.155178 C111.529271,149.353707 115.335594,150.11658 119.261591,150.407017 C120.398167,150.441736 123.337354,150.522431 124.345415,150.510224 C126.27127,150.486919 128.869959,150.413358 131.884283,150.221847 C133.547158,150.116263 134.965583,151.324621 134.998222,152.878745 C134.998562,152.896976 134.999072,152.915366 134.999412,152.933598 C135.030351,154.379918 133.836997,155.594617 132.289717,155.694019 C129.141779,155.896628 126.433784,155.974151 124.422082,155.998407 C123.048365,156.015054 119.165035,155.895835 119.000312,155.890762 C118.956623,155.889335 118.912765,155.887115 118.869247,155.883945 C114.40182,155.559422 110.069877,154.696355 105.957567,153.335327 C104.149687,152.736855 103.422795,150.711088 104.511433,149.237976 C104.524692,149.220061 104.538122,149.201988 104.551381,149.183915" id="Fill-13" fill="#262E6C"></path>
            <path d="M77.8569134,118.003993 C79.1985361,117.93468 80.4235931,118.773789 80.8186121,120.05376 C82.5861551,125.781027 85.5296566,131.139483 89.5546965,135.829972 C92.5054083,139.268557 95.9019542,142.190635 99.6330904,144.541099 C101.090077,145.458763 101.44132,147.423644 100.400296,148.792951 C100.388279,148.808867 100.37609,148.824783 100.363901,148.8407 C99.4423619,150.048791 97.7428014,150.360269 96.4557706,149.549227 C92.2291868,146.886258 88.3809697,143.577056 85.0383291,139.681693 C80.4716615,134.360204 77.1327976,128.280043 75.1298913,121.781439 C74.5698947,119.964253 75.8878266,118.104282 77.7921927,118.007244 C77.8138235,118.006218 77.8354543,118.00502 77.8569134,118.003993" id="Fill-15" fill="#262E6C"></path>
            <path d="M150.031614,150.467922 C149.815382,149.014777 150.7284,147.629547 152.1571,147.249493 C156.987192,145.964019 161.666195,144.213978 165.605609,141.83204 C171.061887,138.532655 172.500308,134.338689 172.746041,131.401236 C173.079086,127.419822 171.417783,124.00002 169.689632,122.423239 C167.332566,123.260914 164.829868,123.908394 162.217689,124.328586 C160.661432,124.578907 159.114043,123.61641 158.773324,122.087559 C158.402591,120.424233 159.520927,118.817474 161.189052,118.553944 C173.92628,116.534106 181.158116,109.357297 182.674469,103.140783 C184.137787,97.1407169 181.551188,90.1752745 177.198068,87.3665383 C176.046138,88.953481 174.690766,90.4589596 173.136726,91.8707798 C168.556631,96.0318894 163.840453,97.9169132 163.641785,97.9951594 C162.129184,98.5948781 160.410412,97.8561114 159.809464,96.3509716 C159.208346,94.8458317 159.949469,93.1416889 161.46514,92.54468 C161.61947,92.4838783 176.904245,86.2878575 176.036247,71.5440245 C175.886863,69.0071178 175.470599,66.7527107 174.869993,64.7508255 C174.5216,63.5896644 174.949119,62.3434825 175.923015,61.6136921 C175.939045,61.6014978 175.955246,61.589473 175.971275,61.5774481 C177.588241,60.3681876 179.921092,61.149126 180.504645,63.0739504 C181.280216,65.6318582 181.762475,68.3540494 181.930106,71.2017394 C182.159298,75.0932212 181.531065,78.8065317 180.088041,82.2497064 C186.737688,86.3120766 190.528911,95.8438951 188.412463,104.521102 C186.901226,110.716953 182.071987,116.192837 175.323091,119.904115 C177.729951,123.082066 178.995625,127.513311 178.629668,131.886973 C178.122171,137.955462 174.586913,143.266047 168.676002,146.840309 C164.231648,149.527781 159.00388,151.482244 153.657082,152.902024 C151.982307,153.346775 150.293548,152.22914 150.040311,150.526014 L150.031614,150.467922 Z" id="Fill-17" fill="#262E6C"></path>
            <path d="M170.560426,52.4962444 C170.580714,52.4665564 170.601192,52.4368683 170.62186,52.4069935 C171.819068,50.669589 174.383567,50.507145 175.760527,52.110113 C175.934591,52.312888 176.106189,52.5179036 176.275133,52.7251598 C177.455277,54.1731525 177.163085,56.2866057 175.626661,57.3628442 C175.608838,57.3753542 175.591014,57.3876776 175.57338,57.4001877 C174.163807,58.3892292 172.224079,58.1311859 171.139689,56.802879 C171.003548,56.6363272 170.868734,56.473323 170.737333,56.316107 C169.823215,55.2225037 169.753059,53.6682689 170.560426,52.4962444" id="Fill-19" fill="#262E6C"></path>
            <path d="M167.470399,49.0698462 L167.428117,49.1300252 C166.610671,50.2909361 165.069171,50.7079393 163.795455,50.0818396 C159.506152,47.9735342 154.598415,47.2665158 150.023328,48.1977605 C144.240411,49.3751612 139.833772,52.424571 138.234877,56.3566064 C137.454278,58.2758749 137.445618,60.1630138 138.187162,61.6373996 C140.924267,61.1529076 143.87346,60.2869418 146.960026,59.0381423 C148.407623,58.452332 150.114345,59.0245425 150.799512,60.4292295 C151.55481,61.977394 150.834492,63.8148938 149.267352,64.4523833 C136.43731,69.6723175 125.495342,69.1092868 119.245627,62.9123786 C118.853205,62.523085 118.578119,62.0309431 118.452123,61.492562 C115.051076,46.953211 110.620155,40.2354314 105.489463,32.4565293 C102.123056,27.3525332 95.7101576,22.6045113 88.7195788,26.0194151 C85.7542543,27.4683013 83.5425294,29.9888499 82.4899012,33.1184984 C82.024123,34.5038057 81.8271478,35.9472519 81.8775803,37.3825383 C81.9103529,38.3093631 81.5135159,39.1994685 80.7721423,39.7556993 C80.6677116,39.834068 80.5629412,39.9122668 80.4581708,39.9901255 C78.6709613,41.3186536 76.1445856,40.1177934 76.0260609,37.89253 C75.9032911,35.5853279 76.2126779,33.2578961 76.9883523,31.0365427 C78.5733227,26.4972773 81.815601,22.8435274 86.1414123,20.7301221 C86.9002759,20.3593582 87.668309,20.0499633 88.4444928,19.7997274 C96.3034603,17.266939 104.874425,20.8428303 110.395332,29.2134926 C115.509892,36.9677452 120.346311,44.3007446 123.965049,59.2621986 C125.991176,60.9654006 128.784147,61.9014053 132.125932,62.0705525 C131.501725,59.5755035 131.709907,56.7929892 132.790044,54.1374629 C134.828736,49.1233953 139.42386,45.2714286 145.630783,43.2707315 C146.661167,42.938557 147.737059,42.6570416 148.852006,42.4300954 C154.682639,41.2431749 160.924712,42.1251204 166.366999,44.7860866 C167.973195,45.5714737 168.500104,47.6071902 167.470399,49.0698462" id="Fill-21" fill="#262E6C"></path>
            <path d="M80.0768224,52.2273547 C79.9455871,52.0661373 79.8317238,51.8917418 79.7369523,51.7067353 L78.503031,49.2941214 C77.8336107,47.9857271 78.2359165,46.3807407 79.4540138,45.5524048 C79.4705257,45.5411093 79.4870376,45.5298138 79.5035496,45.5185183 C80.9762055,44.5154445 82.9968504,45.0167247 83.80645,46.5992913 L84.9278839,48.7918144 C86.3919399,50.8054922 93.8235032,62.548352 84.0063129,81.7015666 C83.992381,81.7289496 83.9779331,81.7561615 83.9629691,81.7828599 C81.0309012,87.0890019 79.2262871,92.7939089 78.5990065,98.7392729 C78.4495393,100.157713 78.1146572,103.601126 78.0917813,103.891557 C77.9091183,106.225787 77.9096343,108.546154 78.0873093,110.836914 C78.2171686,112.512925 76.9252837,113.961144 75.2360809,113.998111 C75.212173,113.998624 75.1884372,113.999138 75.1645293,113.99948 C73.5924579,114.028574 72.2697851,112.833648 72.1493858,111.273673 C71.9498669,108.687177 71.9486629,106.067136 72.1550618,103.431351 C72.1863656,103.029848 72.5399957,99.4170023 72.6769069,98.1207593 C73.385371,91.4019965 75.4192599,84.9591175 78.7218138,78.9701118 C87.4284062,61.9466104 80.3647488,52.5958273 80.0768224,52.2273547" id="Fill-23" fill="#262E6C"></path>
            <path d="M175.685138,22.5084678 C173.553407,23.5909869 170.90231,22.8257782 169.763702,20.7992272 L161.516966,6.12110199 C160.378357,4.09455097 161.183391,1.57405125 163.314769,0.491532161 C165.4465,-0.590986924 168.097596,0.1742218 169.236205,2.20077282 L177.483118,16.878898 C178.62155,18.905449 177.816693,21.4259488 175.685138,22.5084678" id="Fill-25" fill="#00CFFF"></path>
            <path d="M180.508473,5.31497889 C181.590992,7.44653695 180.825783,10.097638 178.799063,11.2362485 L164.1211,19.4829988 C162.09438,20.6216093 159.574047,19.8167508 158.491527,17.6851927 C157.409008,15.5534579 158.174217,12.9023569 160.200937,11.7637464 L174.8789,3.51699605 C176.90562,2.37838555 179.425953,3.18324405 180.508473,5.31497889" id="Fill-27" fill="#00CFFF"></path>
            <path d="M246.365883,18.6366471 C244.861175,19.4368779 242.989985,18.8711651 242.18633,17.3733586 L236.36498,6.52421113 C235.561154,5.02640465 236.129409,3.16341282 237.634117,2.36335289 C239.138825,1.56312215 241.010015,2.12883489 241.813842,3.62664138 L247.63502,14.4756181 C248.438846,15.9735954 247.870591,17.8364164 246.365883,18.6366471" id="Fill-29" fill="#FFDD00"></path>
            <g id="Group-33" transform="translate(234.000000, 5.000000)">
                <mask id="mask-2" fill="white">
                    <use xlink:href="#path-1"></use>
                </mask>
                <g id="Clip-32"></g>
                <path d="M16.4861287,1.66428169 C17.2746931,3.14653521 16.7170594,4.98997183 15.2410891,5.7816338 L4.55027723,11.5159437 C3.07413861,12.3077746 1.23830693,11.748 0.449910891,10.2657465 C-0.338653465,8.78366197 0.218980198,6.94022535 1.6949505,6.14839437 L12.3857624,0.414084507 C13.8617327,-0.377746479 15.6975644,0.182028169 16.4861287,1.66428169" id="Fill-31" fill="#FFDD00" mask="url(#mask-2)"></path>
            </g>
            <path d="M197.413538,12.1487423 C196.502803,10.4440562 197.146589,8.3239977 198.851257,7.41342651 C200.555924,6.50285531 202.675959,7.14664815 203.586694,8.85133418 C204.497082,10.5558474 203.853296,12.675906 202.148629,13.5866499 C200.444134,14.4970484 198.324099,13.8534283 197.413538,12.1487423" id="Fill-34" fill="#FF8C00"></path>
            <path d="M64.3298914,173.981485 C63.5117376,172.230606 64.2677826,170.148058 66.0184635,169.329895 C67.7693235,168.511732 69.851848,169.267786 70.6700019,171.018486 C71.4883347,172.769365 70.7322897,174.851913 68.9814297,175.670076 C67.2307488,176.488239 65.1480452,175.732364 64.3298914,173.981485" id="Fill-36" fill="#FF8C00"></path>
            <path d="M216.720957,60.7095547 C217.895817,60.0676206 218.343509,58.5593889 217.716012,57.357985 L214.556175,51.308125 C213.928677,50.1065518 212.453976,49.6486806 211.279116,50.2904453 C210.104256,50.93221 209.656399,52.4406111 210.284061,53.642015 L213.443733,59.691875 C214.071396,60.8934482 215.545931,61.3513194 216.720957,60.7095547" id="Fill-38" fill="#FFDD00"></path>
            <path d="M228.720884,81.7094818 C229.895744,81.0677214 230.343601,79.5595 229.715939,78.3579349 L226.556267,72.3081161 C225.928604,71.1065511 224.453903,70.648683 223.279043,71.2904433 C222.104183,71.932373 221.656491,73.4405945 222.283988,74.6421595 L225.443825,80.691809 C226.071323,81.893374 227.546024,82.3514114 228.720884,81.7094818" id="Fill-40" fill="#FFDD00"></path>
            <path d="M214.709555,69.2791215 C214.067621,68.1042566 212.559558,67.6563973 211.357816,68.2840626 L205.308125,71.443747 C204.106552,72.0714123 203.648681,73.5459538 204.290445,74.7209842 C204.93221,75.8956835 206.440442,76.3435428 207.642015,75.7160431 L213.691875,72.5561931 C214.893448,71.9286934 215.351319,70.4539863 214.709555,69.2791215" id="Fill-42" fill="#FFDD00"></path>
            <path d="M236.709559,57.2791215 C236.067625,56.1042566 234.559562,55.6563973 233.357819,56.2840626 L227.308126,59.443747 C226.106552,60.0714123 225.64868,61.5461194 226.290445,62.7209842 C226.93221,63.8956835 228.440443,64.3435428 229.642017,63.7160431 L235.69171,60.5561931 C236.893453,59.9286934 237.351324,58.4539863 236.709559,57.2791215" id="Fill-44" fill="#FFDD00"></path>
            <path d="M214.889101,64.2294874 C215.30147,62.915756 214.52755,61.5146473 213.169395,61.1156471 L206.330451,59.1073344 C204.97212,58.7083342 203.523269,59.4568436 203.110899,60.770575 C202.69853,62.0843064 203.47245,63.4855857 204.830605,63.8844153 L211.669549,65.892728 C213.02788,66.2915576 214.476731,65.5432188 214.889101,64.2294874" id="Fill-46" fill="#FFDD00"></path>
            <path d="M237.889101,71.2294874 C238.301468,69.915756 237.527553,68.5144767 236.169407,68.1156471 L229.330331,66.1073344 C227.972186,65.7083342 226.523344,66.4568436 226.110978,67.770575 C225.698434,69.0843064 226.47235,70.4854151 227.830672,70.8844153 L234.669571,72.892728 C236.027893,73.2915576 237.476558,72.5432188 237.889101,71.2294874" id="Fill-48" fill="#FFDD00"></path>
            <path d="M219.229441,72.1109135 C217.915892,71.6985451 216.514625,72.4722873 216.115799,73.8306152 L214.107333,80.6695435 C213.708337,82.0278714 214.45684,83.4767191 215.770559,83.8890875 C217.084279,84.301456 218.485546,83.5277138 218.884372,82.1692095 L220.892667,75.3304575 C221.291663,73.9721297 220.54316,72.5232819 219.229441,72.1109135" id="Fill-50" fill="#FFDD00"></path>
            <path d="M225.229441,48.1109135 C223.915892,47.6985451 222.514625,48.4722873 222.115799,49.830615 L220.107333,56.6695428 C219.708337,58.0278705 220.45684,59.4767181 221.770559,59.8890865 C223.084279,60.3014549 224.485546,59.5277127 224.884372,58.169385 L226.892667,51.3304572 C227.291663,49.9721295 226.54316,48.5232819 225.229441,48.1109135" id="Fill-52" fill="#FFDD00"></path>
            <path d="M22.7157599,172.941255 C24.2609453,172.623628 25.257412,171.106409 24.9415883,169.552401 L22.6538532,158.297283 C22.3380296,156.743275 20.8294254,155.741118 19.2842401,156.058745 C17.7390547,156.376372 16.742588,157.893591 17.0584117,159.447599 L19.3461468,170.702717 C19.6619704,172.256725 21.1705746,173.258882 22.7157599,172.941255" id="Fill-54" fill="#FFDD00"></path>
            <path d="M12.0587452,166.71576 C12.3763722,168.260945 13.8935907,169.257412 15.4475993,168.941588 L26.7027167,166.653853 C28.2567252,166.33803 29.2588818,164.829425 28.9412548,163.28424 C28.6236278,161.739055 27.1064093,160.742588 25.5524007,161.058412 L14.2972833,163.346147 C12.7432748,163.66197 11.7411182,165.17074 12.0587452,166.71576" id="Fill-56" fill="#FFDD00"></path>
            <path d="M46.8579664,87.9688996 C47.6304929,87.8007471 48.1287036,86.9974477 47.9707937,86.1746399 L46.8270005,80.216275 C46.6690905,79.3936398 45.914722,78.8629408 45.1421954,79.0310933 C44.3695068,79.1992458 43.8712961,80.0025452 44.029206,80.8253531 L45.1729992,86.7837179 C45.3310713,87.6065258 46.0852777,88.1370521 46.8579664,87.9688996" id="Fill-58" fill="#00CFFF"></path>
            <path d="M42.0311004,83.8578046 C42.1992529,84.6304932 43.0025523,85.1287039 43.8253601,84.970794 L49.783725,83.8270008 C50.6063602,83.6689287 51.1370592,82.9147223 50.9689067,82.1420336 C50.8007542,81.3695071 49.9974548,80.8712964 49.1746469,81.0292063 L43.2162821,82.1729995 C42.3934742,82.3309095 41.8629479,83.085278 42.0311004,83.8578046" id="Fill-60" fill="#00CFFF"></path>
            <path d="M47.2868198,133.958519 C48.4456747,133.734255 49.1929817,132.663183 48.9562264,131.566259 L47.2403905,123.621517 C47.0034644,122.524593 45.8719208,121.817223 44.7130658,122.041488 C43.5542109,122.265752 42.8069039,123.336663 43.0438299,124.433587 L44.7594951,132.378328 C44.9964212,133.475252 46.1279648,134.182784 47.2868198,133.958519" id="Fill-62" fill="#FF8900"></path>
            <path d="M40.0414806,129.28682 C40.265745,130.445675 41.3368172,131.192982 42.4337412,130.956226 L50.378483,129.24039 C51.475407,129.003464 52.1827768,127.871921 51.9585124,126.713066 C51.7342481,125.554211 50.6633375,124.806904 49.5664134,125.04383 L41.6216717,126.759495 C40.5247476,126.996421 39.8172163,128.127965 40.0414806,129.28682" id="Fill-64" fill="#FF8900"></path>
            <path d="M12.9488242,111.999367 C12.672404,110.646825 11.3517495,109.774703 9.99939794,110.051126 C8.64686926,110.327549 7.77457858,111.648216 8.05117583,113.000582 C8.327596,114.353124 9.64807339,115.225424 11.0006021,114.948824 C12.3531307,114.672401 13.2254214,113.35191 12.9488242,111.999367" id="Fill-66" fill="#FF8C00"></path>
            <path d="M5.03706464,134.385012 C4.46920938,134.6505 3.98372969,135.067741 3.62953099,135.603915 C3.12309184,136.370644 2.94550505,137.288801 3.12959089,138.189086 C3.31367673,139.089371 3.83717592,139.863899 4.60390238,140.37034 C5.37062883,140.876943 6.28862089,141.054368 7.188903,140.870444 C8.08918512,140.686358 8.86387292,140.163019 9.37031208,139.395965 C9.87675123,138.629399 10.054338,137.711241 9.87025217,136.810956 C9.68632881,135.910671 9.16266715,135.135981 8.39594069,134.62954 C7.62937671,134.123099 6.71122218,133.945512 5.81094007,134.129761 C5.54041674,134.185003 5.2811043,134.270953 5.03706464,134.385012 M9.26291513,143.383963 C8.80196939,143.599408 8.31242779,143.761722 7.80127681,143.866195 C6.10079809,144.213896 4.36684921,143.878706 2.91853396,142.921879 C1.47021871,141.965214 0.481224445,140.501946 0.133687277,138.801462 C-0.213849891,137.100815 0.121501542,135.366698 1.07800052,133.918703 C2.03466197,132.470221 3.49841248,131.481548 5.19856625,131.133685 C6.8988825,130.786147 8.63299386,131.121499 10.0813091,132.078164 C11.5296244,133.034666 12.5186186,134.498096 12.8663183,136.19858 C13.2138554,137.899065 12.878504,139.633182 11.9216801,141.081339 C11.252602,142.094383 10.3354223,142.882722 9.26291513,143.383963" id="Fill-68" fill="#00CFFF"></path>
        </g>
    </g>
</svg>